<?xml version="1.0" encoding="UTF-8" standalone="no"?>
<!-- Created with Inkscape (http://www.inkscape.org/) -->
<svg
   xmlns:dc="http://purl.org/dc/elements/1.1/"
   xmlns:cc="http://web.resource.org/cc/"
   xmlns:rdf="http://www.w3.org/1999/02/22-rdf-syntax-ns#"
   xmlns:svg="http://www.w3.org/2000/svg"
   xmlns="http://www.w3.org/2000/svg"
   xmlns:sodipodi="http://sodipodi.sourceforge.net/DTD/sodipodi-0.dtd"
   xmlns:inkscape="http://www.inkscape.org/namespaces/inkscape"
   width="297mm"
   height="210mm"
   id="svg2160"
   sodipodi:version="0.32"
   inkscape:version="0.45.1"
   sodipodi:docbase="Z:\www\semi2007\svg"
   sodipodi:docname="baby.svg"
   inkscape:output_extension="org.inkscape.output.svg.inkscape">
  <defs
     id="defs2162" />
  <sodipodi:namedview
     inkscape:document-units="mm"
     pagecolor="#ffffff"
     bordercolor="#666666"
     borderopacity="1.0"
     inkscape:pageopacity="0.0"
     inkscape:pageshadow="2"
     inkscape:zoom="0.61399264"
     inkscape:cx="484.48442"
     inkscape:cy="332.93656"
     inkscape:current-layer="layer1"
     id="namedview2164"
     inkscape:window-width="1024"
     inkscape:window-height="721"
     inkscape:window-x="-4"
     inkscape:window-y="-4" />
  <metadata
     id="metadata2166">
    <rdf:RDF>
      <cc:Work
         rdf:about="">
        <dc:format>image/svg+xml</dc:format>
        <dc:type
           rdf:resource="http://purl.org/dc/dcmitype/StillImage" />
      </cc:Work>
    </rdf:RDF>
  </metadata>
  <g
     inkscape:label="Layer 1"
     inkscape:groupmode="layer"
     id="layer1">
    <g
       id="g3222"
       transform="translate(58.632625,-99.34972)">
      <g
         transform="translate(-551.65778,-24.474092)"
         id="g3200">
        <path
           style="fill:#c8c8c8;fill-opacity:1;fill-rule:evenodd;stroke:#000000;stroke-width:4;stroke-linecap:butt;stroke-linejoin:miter;stroke-miterlimit:4;stroke-dasharray:none;stroke-opacity:1"
           d="M 791.54043,581.22608 C 790.81966,598.68468 794.38251,618.09534 788.28306,633.34397 C 781.53239,649.22673 764.31724,671.72214 780.13964,687.09054 C 808.44979,691.1569 840.63597,688.71923 869.71726,688.71923 C 880.70146,688.71923 879.48937,679.28193 879.48937,670.8037 C 882.17698,650.35807 880.96942,638.11998 876.232,618.68581 C 876.01906,617.62111 876.232,616.51423 876.232,615.42845 C 873.38648,601.78931 865.26213,580.86473 856.68779,569.82529 C 852.41014,565.54765 819.34125,570.12839 812.71332,571.45398"
           id="path3180"
           sodipodi:nodetypes="ccccccccc" />
        <path
           style="fill:#ffffc8;fill-opacity:1;fill-rule:evenodd;stroke:#000000;stroke-width:2;stroke-linecap:butt;stroke-linejoin:miter;stroke-miterlimit:4;stroke-dasharray:none;stroke-opacity:1"
           d="M 777.19495,676.55119 C 777.19495,671.16859 776.87108,666.28862 780.45232,662.70738 C 784.03356,659.12614 791.839,658.63802 796.73916,657.82132 C 811.69552,656.34691 815.24238,672.50256 810.58297,683.88027 C 809.66108,685.72405 798.66518,687.61008 793.48178,688.76632 C 780.59931,687.37549 776.37212,688.50054 777.19495,676.55119 z "
           id="path3188"
           sodipodi:nodetypes="czcccc" />
        <path
           style="fill:#ffffc8;fill-opacity:1;fill-rule:evenodd;stroke:#000000;stroke-width:2;stroke-linecap:butt;stroke-linejoin:miter;stroke-miterlimit:4;stroke-dasharray:none;stroke-opacity:1"
           d="M 841.52796,678.17987 C 841.52796,672.79727 841.20409,667.9173 844.78533,664.33606 C 848.36657,660.75482 856.17201,660.2667 861.07217,659.45 C 876.02853,657.97559 879.57539,674.13124 874.91598,685.50895 C 873.99409,687.35273 862.99819,689.23876 857.81479,690.395 C 844.93232,689.00417 840.70513,690.12922 841.52796,678.17987 z "
           id="path3190"
           sodipodi:nodetypes="czcccc" />
        <path
           style="fill:#ffffc8;fill-opacity:1;fill-rule:evenodd;stroke:#000000;stroke-width:2;stroke-linecap:butt;stroke-linejoin:miter;stroke-miterlimit:4;stroke-dasharray:none;stroke-opacity:1"
           d="M 808.95429,677.36553 C 808.95429,671.98293 808.63042,667.10296 812.21166,663.52172 C 815.7929,659.94048 823.59834,659.45236 828.4985,658.63566 C 843.45486,657.16125 847.00172,673.3169 842.34231,684.69461 C 841.42042,686.53839 830.42452,688.42442 825.24112,689.58066 C 812.35865,688.18983 808.13146,689.31488 808.95429,677.36553 z "
           id="path3192"
           sodipodi:nodetypes="czcccc" />
      </g>
      <g
         transform="translate(-258.58472,-24.284729)"
         id="g3194">
        <path
           style="fill:#c8c8c8;fill-opacity:1;fill-rule:evenodd;stroke:#000000;stroke-width:4;stroke-linecap:butt;stroke-linejoin:miter;stroke-miterlimit:4;stroke-dasharray:none;stroke-opacity:1"
           d="M 646.58755,577.96871 C 648.70297,583.81968 648.21624,600.98591 648.21624,612.17108 C 648.21624,625.06221 643.05166,634.85463 638.44413,646.37344 C 634.04231,657.37799 631.9294,665.08118 631.9294,677.31844 C 631.9294,687.63344 667.21756,682.20449 677.53255,682.20449 C 697.61965,682.20449 703.0486,677.31844 723.1357,677.31844 C 742.9359,677.17374 738.29811,653.72353 737.79386,639.85871 C 737.50822,621.03081 736.09301,602.67448 731.27912,584.48345 C 728.07923,571.68387 727.05386,569.82529 713.3636,569.82529 C 699.24834,569.82529 685.13307,569.82529 671.01781,569.82529"
           id="path3174"
           sodipodi:nodetypes="cssscccccc" />
        <path
           style="fill:#ffffc8;fill-opacity:1;fill-rule:evenodd;stroke:#000000;stroke-width:2;stroke-linecap:butt;stroke-linejoin:miter;stroke-miterlimit:4;stroke-dasharray:none;stroke-opacity:1"
           d="M 635.18676,672.52658 C 635.18676,667.14398 634.86289,662.26401 638.44413,658.68277 C 642.02537,655.10153 649.83081,654.61341 654.73097,653.79671 C 669.68733,652.3223 673.23419,668.47795 668.57478,679.85566 C 667.65289,681.69944 656.65699,683.58547 651.47359,684.74171 C 638.59112,683.35088 634.36393,684.47593 635.18676,672.52658 z "
           id="path3182"
           sodipodi:nodetypes="czcccc" />
        <path
           style="fill:#ffffc8;fill-opacity:1;fill-rule:evenodd;stroke:#000000;stroke-width:2;stroke-linecap:butt;stroke-linejoin:miter;stroke-miterlimit:4;stroke-dasharray:none;stroke-opacity:1"
           d="M 701.46115,665.1504 C 701.46115,659.7678 701.13728,654.88783 704.71852,651.30659 C 708.29976,647.72535 716.1052,647.23723 721.00536,646.42053 C 735.96172,644.94612 739.50858,661.10177 734.84917,672.47948 C 733.92728,674.32326 722.93138,676.20929 717.74798,677.36553 C 704.86551,675.9747 700.63832,677.09975 701.46115,665.1504 z "
           id="path3184"
           sodipodi:nodetypes="czcccc" />
        <path
           style="fill:#ffffc8;fill-opacity:1;fill-rule:evenodd;stroke:#000000;stroke-width:2;stroke-linecap:butt;stroke-linejoin:miter;stroke-miterlimit:4;stroke-dasharray:none;stroke-opacity:1"
           d="M 668.88746,669.22212 C 668.88746,663.83952 668.56359,658.95955 672.14483,655.37831 C 675.72607,651.79707 683.53151,651.30895 688.43167,650.49225 C 703.38803,649.01784 706.93489,665.17349 702.27548,676.5512 C 701.35359,678.39498 690.35769,680.28101 685.17429,681.43725 C 672.29182,680.04642 668.06463,681.17147 668.88746,669.22212 z "
           id="path3186"
           sodipodi:nodetypes="czcccc" />
      </g>
      <path
         sodipodi:nodetypes="czzzssc"
         id="path3220"
         d="M 600.01148,467.69764 C 596.37763,478.4759 611.29722,494.41409 613.83133,504.55055 C 616.36544,514.68701 638.37566,517.71049 647.22928,522.977 C 656.0829,528.24351 641.6945,500.87992 640.31935,495.33732 C 638.9442,489.79472 634.76193,486.92748 633.40943,481.51748 C 632.17409,476.5761 632.25778,470.99964 632.25778,465.39433 C 632.25778,459.06093 614.45539,457.33276 609.2247,457.33276"
         style="fill:#ffffc8;fill-opacity:1;fill-rule:evenodd;stroke:#000000;stroke-width:4;stroke-linecap:butt;stroke-linejoin:miter;stroke-miterlimit:4;stroke-dasharray:none;stroke-opacity:1" />
      <path
         sodipodi:nodetypes="cscccccccsccccccccccc"
         id="path3146"
         d="M 504.89205,332.03743 C 504.89205,322.15719 509.95802,298.4218 517.92152,292.94901 C 530.81975,284.08491 531.24726,278.17235 539.09442,275.03349 C 560.56923,260.27397 586.92457,259.29611 612.3852,258.74665 C 631.47297,260.31567 652.95808,266.06804 669.38914,276.66217 C 675.72172,281.41161 689.18458,301.59491 692.19071,307.60717 C 701.47375,343.43524 680.27918,377.95456 677.53255,411.84295 C 675.66728,436.95805 682.37417,435.1872 705.22018,434.64452 C 729.70374,430.74481 745.67872,429.47869 767.11018,444.41663 C 778.54944,452.99608 786.88783,461.17037 793.16912,473.73294 C 799.90843,487.21156 811.08464,512.82998 811.08464,529.10819 C 817.03833,554.41991 772.46344,552.69424 757.33807,532.36556 C 753.2207,506.68548 762.01866,504.18407 741.05123,485.13373 C 730.7866,474.8691 712.47002,476.99031 698.70545,476.99031 C 673.04286,484.31131 676.70042,493.46202 648.21624,485.13373 C 629.7051,478.15656 630.25861,451.331 614.01388,462.33215 C 607.70657,467.06263 603.77572,475.82768 597.72704,481.87636 C 585.72391,488.02926 561.62649,486.94062 548.86652,481.87636 C 540.91695,477.90158 532.7643,472.28888 527.69362,467.2182 C 515.85032,454.39521 504.49413,440.36961 500.006,423.24373 C 495.65412,404.54699 496.74863,385.27993 496.74863,366.23979"
         style="fill:#c8c8c8;fill-opacity:1;fill-rule:evenodd;stroke:#000000;stroke-width:4;stroke-linecap:butt;stroke-linejoin:miter;stroke-miterlimit:4;stroke-dasharray:none;stroke-opacity:1" />
      <path
         sodipodi:nodetypes="cccczzzczzcczcczzczczszzzss"
         id="path3150"
         d="M 539.09441,423.24373 C 543.18975,405.79961 540.4974,388.05791 535.83704,371.12584 C 532.58895,358.13351 523.61599,349.13269 514.66415,340.18085 C 502.43134,327.98176 486.65656,320.264 470.68968,314.1219 C 444.09062,304.85834 435.33281,299.49381 397.3989,299.46375 C 359.46499,299.43369 289.26817,301.03645 260.58944,309.23585 C 231.91071,317.43525 217.73521,316.59765 185.66998,336.92348 C 153.60475,357.24931 126.74447,384.15412 117.26525,421.61505 C 109.38153,448.75028 107.14077,486.13462 115.63656,516.07872 C 124.13235,546.02282 129.34434,534.02916 141.69551,563.31055 C 154.04668,592.59194 146.14522,578.00307 159.61103,607.28502 C 162.8684,637.3698 153.18214,654.47394 148.21024,675.68975 C 166.30252,688.35364 169.04479,685.07942 198.69945,685.46185 C 228.35412,685.84428 237.21798,682.20449 258.96076,675.68976 C 267.85428,660.42349 240.03768,605.49106 242.67391,587.74081 C 242.67391,576.47409 296.09692,608.22399 325.7368,607.28502 C 355.47277,606.34301 365.23457,606.53919 382.74074,607.28503 C 400.24692,608.03086 408.37038,586.06593 425.08652,582.85476 C 434.73982,580.92411 449.57295,602.42353 452.77415,618.68581 C 455.97535,634.94809 441.03255,655.74335 441.37337,670.8037 C 441.37337,680.24633 492.36972,677.31844 511.40678,677.31844 C 530.44384,677.31844 535.48235,683.25098 550.4952,677.31844 C 562.73481,672.48179 556.37444,654.77058 558.63861,633.34397 C 560.90278,611.91736 564.67296,601.23143 561.89598,586.11214 C 559.119,570.99284 543.82054,536.38155 539.09441,516.07872 C 534.36829,495.77588 536.0686,493.03783 534.20835,481.87636 C 532.75918,473.18132 532.57967,461.86845 532.57967,450.93136"
         style="fill:#c8c8c8;fill-opacity:1;fill-rule:evenodd;stroke:#000000;stroke-width:4;stroke-linecap:butt;stroke-linejoin:miter;stroke-miterlimit:4;stroke-dasharray:none;stroke-opacity:1" />
      <path
         sodipodi:nodetypes="cccccccccsc"
         id="path2173"
         d="M 553.75257,327.15137 C 534.4312,309.47418 518.92922,294.54064 500.006,276.66217 C 487.6711,264.82654 472.97076,258.49605 456.03153,262.00401 C 435.98092,266.11896 427.94492,281.07959 423.45785,299.46374 C 418.65074,320.71812 416.29836,342.82301 415.31443,364.6111 C 415.31443,391.21294 415.31443,417.81478 415.31443,444.41662 C 413.34581,472.80914 415.84722,485.15062 446.25942,483.50504 C 457.70894,483.50504 470.02025,484.48674 480.46179,481.87635 C 495.0739,476.47219 514.01308,456.07547 526.06494,444.41662 C 531.74133,437.32113 541.14286,430.54762 545.60915,421.61504 C 546.99868,418.83599 546.48134,418.12627 547.23783,415.10031"
         style="fill:#c8c8c8;fill-opacity:1;fill-rule:evenodd;stroke:#000000;stroke-width:4;stroke-linecap:butt;stroke-linejoin:miter;stroke-miterlimit:4;stroke-dasharray:none;stroke-opacity:1" />
      <path
         id="path3148"
         d="M 649.84492,332.03743 C 649.43483,335.15959 644.88683,348.61245 643.33019,354.839 C 640.09942,365.92003 640.37771,378.76231 631.9294,387.41268"
         style="fill:none;fill-opacity:0.75;fill-rule:evenodd;stroke:#000000;stroke-width:3;stroke-linecap:butt;stroke-linejoin:miter;stroke-miterlimit:4;stroke-dasharray:none;stroke-opacity:1"
         sodipodi:nodetypes="ccc" />
      <path
         sodipodi:nodetypes="ccc"
         id="path3152"
         d="M 110.75051,455.81741 C 111.21275,459.67659 111.0644,474.10608 109.12183,481.87636 C 96.735381,516.72937 86.309536,530.73688 48.86052,530.73688"
         style="fill:none;fill-opacity:0.75;fill-rule:evenodd;stroke:#000000;stroke-width:4;stroke-linecap:butt;stroke-linejoin:miter;stroke-miterlimit:4;stroke-dasharray:none;stroke-opacity:1" />
      <path
         sodipodi:nodetypes="czcccc"
         id="path3206"
         d="M 152.59462,673.29382 C 152.59462,667.91122 152.27075,663.03125 155.85199,659.45001 C 159.43323,655.86877 167.23867,655.38065 172.13883,654.56395 C 187.09519,653.08954 190.64205,669.24519 185.98264,680.6229 C 185.06075,682.46668 174.06485,684.35271 168.88145,685.50895 C 155.99898,684.11812 151.77179,685.24317 152.59462,673.29382 z "
         style="fill:#ffffc8;fill-opacity:1;fill-rule:evenodd;stroke:#000000;stroke-width:2;stroke-linecap:butt;stroke-linejoin:miter;stroke-miterlimit:4;stroke-dasharray:none;stroke-opacity:1" />
      <path
         sodipodi:nodetypes="czcccc"
         id="path3208"
         d="M 222.62804,668.40776 C 222.62804,663.02516 222.30417,658.14519 225.88541,654.56395 C 229.46665,650.98271 237.27209,650.49459 242.17225,649.67789 C 257.12861,648.20348 260.67547,664.35913 256.01606,675.73684 C 255.09417,677.58062 244.09827,679.46665 238.91487,680.62289 C 226.0324,679.23206 221.80521,680.35711 222.62804,668.40776 z "
         style="fill:#ffffc8;fill-opacity:1;fill-rule:evenodd;stroke:#000000;stroke-width:2;stroke-linecap:butt;stroke-linejoin:miter;stroke-miterlimit:4;stroke-dasharray:none;stroke-opacity:1" />
      <path
         sodipodi:nodetypes="czcccc"
         id="path3210"
         d="M 187.61134,673.29382 C 187.61134,667.91122 187.28747,663.03125 190.86871,659.45001 C 194.44995,655.86877 202.25539,655.38065 207.15555,654.56395 C 222.11191,653.08954 225.65877,669.24519 220.99936,680.6229 C 220.07747,682.46668 209.08157,684.35271 203.89817,685.50895 C 191.0157,684.11812 186.78851,685.24317 187.61134,673.29382 z "
         style="fill:#ffffc8;fill-opacity:1;fill-rule:evenodd;stroke:#000000;stroke-width:2;stroke-linecap:butt;stroke-linejoin:miter;stroke-miterlimit:4;stroke-dasharray:none;stroke-opacity:1" />
      <path
         sodipodi:nodetypes="czcccc"
         id="path3212"
         d="M 519.86288,666.77908 C 519.86288,661.39648 519.53901,656.51651 523.12025,652.93527 C 526.70149,649.35403 534.50693,648.86591 539.40709,648.04921 C 554.36345,646.5748 557.91031,662.73045 553.2509,674.10816 C 552.32901,675.95194 541.33311,677.83797 536.14971,678.99421 C 523.26724,677.60338 519.04005,678.72843 519.86288,666.77908 z "
         style="fill:#ffffc8;fill-opacity:1;fill-rule:evenodd;stroke:#000000;stroke-width:2;stroke-linecap:butt;stroke-linejoin:miter;stroke-miterlimit:4;stroke-dasharray:none;stroke-opacity:1" />
      <path
         sodipodi:nodetypes="czcccc"
         id="path3214"
         d="M 445.75775,665.96474 C 445.75775,660.58214 445.43388,655.70217 449.01512,652.12093 C 452.59636,648.53969 460.4018,648.05157 465.30196,647.23487 C 480.25832,645.76046 483.80518,661.91611 479.14577,673.29382 C 478.22388,675.1376 467.22798,677.02363 462.04458,678.17987 C 449.16211,676.78904 444.93492,677.91409 445.75775,665.96474 z "
         style="fill:#ffffc8;fill-opacity:1;fill-rule:evenodd;stroke:#000000;stroke-width:2;stroke-linecap:butt;stroke-linejoin:miter;stroke-miterlimit:4;stroke-dasharray:none;stroke-opacity:1" />
      <path
         sodipodi:nodetypes="czcccc"
         id="path3216"
         d="M 481.5888,665.96475 C 481.5888,660.58215 481.26493,655.70218 484.84617,652.12094 C 488.42741,648.5397 496.23285,648.05158 501.13301,647.23488 C 516.08937,645.76047 519.63623,661.91612 514.97682,673.29383 C 514.05493,675.13761 503.05903,677.02364 497.87563,678.17988 C 484.99316,676.78905 480.76597,677.9141 481.5888,665.96475 z "
         style="fill:#ffffc8;fill-opacity:1;fill-rule:evenodd;stroke:#000000;stroke-width:2;stroke-linecap:butt;stroke-linejoin:miter;stroke-miterlimit:4;stroke-dasharray:none;stroke-opacity:1" />
    </g>
    <g
       id="g3285"
       transform="matrix(-1,0,0,1,1487.9851,-39.088416)">
      <g
         transform="translate(148.21025,-12.622301)"
         id="g3272">
        <path
           style="fill:#c8c8c8;fill-opacity:1;fill-rule:evenodd;stroke:#000000;stroke-width:4;stroke-linecap:butt;stroke-linejoin:miter;stroke-miterlimit:4;stroke-dasharray:none;stroke-opacity:1"
           d="M 684.86163,646.37344 C 681.53784,653.93084 675.79888,658.85406 677.53255,667.54633 C 678.10661,669.84255 685.41653,670.8037 688.93334,670.8037 C 699.59053,673.99344 696.76123,665.24896 697.07676,656.14555 C 697.07676,651.65201 697.68833,647.99886 698.70544,643.93042 C 699.22814,641.83964 691.12852,640.94922 689.74768,640.67305"
           id="path3258"
           sodipodi:nodetypes="ccccsc" />
        <path
           style="fill:#ffffc8;fill-opacity:1;fill-rule:evenodd;stroke:#000000;stroke-width:1.5;stroke-linecap:butt;stroke-linejoin:miter;stroke-miterlimit:4;stroke-dasharray:none;stroke-opacity:1"
           d="M 677.93973,663.88179 C 677.47039,666.18941 677.31056,666.91717 679.16124,668.76784 C 679.80186,669.40847 684.67189,668.76784 685.67598,668.76784 C 687.81819,668.76784 684.68844,663.7086 684.45446,663.47462 C 683.41905,662.4392 679.07588,663.31371 677.93973,663.88179 z "
           id="path3260" />
        <path
           style="fill:#ffffc8;fill-opacity:1;fill-rule:evenodd;stroke:#000000;stroke-width:1.5;stroke-linecap:butt;stroke-linejoin:miter;stroke-miterlimit:4;stroke-dasharray:none;stroke-opacity:1"
           d="M 686.47484,664.18348 C 686.0055,666.4911 685.84567,667.21886 687.69635,669.06953 C 688.33697,669.71016 693.207,669.06953 694.21109,669.06953 C 696.3533,669.06953 693.22355,664.01029 692.98957,663.77631 C 691.95416,662.74089 687.61099,663.6154 686.47484,664.18348 z "
           id="path3262" />
      </g>
      <g
         transform="translate(107.23348,-12.957367)"
         id="g3277">
        <path
           style="fill:#c8c8c8;fill-opacity:1;fill-rule:evenodd;stroke:#000000;stroke-width:4;stroke-linecap:butt;stroke-linejoin:miter;stroke-miterlimit:4;stroke-dasharray:none;stroke-opacity:1"
           d="M 684.86163,646.37344 C 681.53784,653.93084 675.79888,658.85406 677.53255,667.54633 C 678.10661,669.84255 685.41653,670.8037 688.93334,670.8037 C 699.59053,673.99344 696.76123,665.24896 697.07676,656.14555 C 697.07676,651.65201 697.68833,647.99886 698.70544,643.93042 C 699.22814,641.83964 691.12852,640.94922 689.74768,640.67305"
           id="path3279"
           sodipodi:nodetypes="ccccsc" />
        <path
           style="fill:#ffffc8;fill-opacity:1;fill-rule:evenodd;stroke:#000000;stroke-width:1.5;stroke-linecap:butt;stroke-linejoin:miter;stroke-miterlimit:4;stroke-dasharray:none;stroke-opacity:1"
           d="M 677.93973,663.88179 C 677.47039,666.18941 677.31056,666.91717 679.16124,668.76784 C 679.80186,669.40847 684.67189,668.76784 685.67598,668.76784 C 687.81819,668.76784 684.68844,663.7086 684.45446,663.47462 C 683.41905,662.4392 679.07588,663.31371 677.93973,663.88179 z "
           id="path3281" />
        <path
           style="fill:#ffffc8;fill-opacity:1;fill-rule:evenodd;stroke:#000000;stroke-width:1.5;stroke-linecap:butt;stroke-linejoin:miter;stroke-miterlimit:4;stroke-dasharray:none;stroke-opacity:1"
           d="M 686.47484,664.18348 C 686.0055,666.4911 685.84567,667.21886 687.69635,669.06953 C 688.33697,669.71016 693.207,669.06953 694.21109,669.06953 C 696.3533,669.06953 693.22355,664.01029 692.98957,663.77631 C 691.95416,662.74089 687.61099,663.6154 686.47484,664.18348 z "
           id="path3283" />
      </g>
      <path
         sodipodi:nodetypes="ccczcccccccccsccccc"
         id="path3250"
         d="M 791.54043,565.75358 C 791.79532,556.42983 791.70729,547.23161 789.91175,538.06595 C 787.72974,529.81155 782.71063,523.53576 776.88228,517.70741 C 769.04113,514.69877 758.20747,511.2625 751.63768,511.19267 C 745.06788,511.12285 739.1511,514.45004 734.53649,514.45004 C 720.18915,519.47196 713.42284,536.8131 710.10623,550.28108 C 707.12578,561.40848 705.73345,573.30795 693.81939,577.96871 C 686.42885,579.81635 679.2166,573.42793 675.90387,569.01095 C 666.55789,555.17636 674.44721,538.18568 684.86163,527.47951 C 684.9205,527.42064 681.16944,512.85822 675.08953,520.96477 C 669.69144,528.01098 663.08547,534.27351 660.43137,542.95201 C 657.84626,553.12538 653.4272,564.1456 657.174,573.897 C 661.39053,584.59017 671.23565,595.96323 683.23295,596.69857 C 692.12834,596.69857 693.07475,599.95595 701.96281,599.95595 C 707.03414,599.95595 710.34236,598.09113 713.3636,595.06989 C 718.68383,604.70215 720.97833,600.94247 732.09347,603.21331 C 740.35281,608.39407 749.25451,610.22085 758.96675,610.54239 C 768.90272,610.54239 775.22332,610.57266 781.76833,604.02766 C 789.87759,598.05433 790.72609,590.36885 790.72609,581.22608"
         style="fill:#c8c8c8;fill-opacity:1;fill-rule:evenodd;stroke:#000000;stroke-width:4;stroke-linecap:butt;stroke-linejoin:miter;stroke-miterlimit:4;stroke-dasharray:none;stroke-opacity:1" />
      <path
         sodipodi:nodetypes="cczcccccssszccccc"
         id="path3252"
         d="M 802.12689,577.96871 C 810.09451,572.80894 819.77014,572.41918 829.00017,569.82529 C 835.87026,567.67976 843.53517,568.14561 850.17306,568.19661 C 856.81095,568.24761 871.9635,576.95757 876.232,581.22608 C 884.97374,587.41407 884.62006,597.44964 884.37542,604.842 C 880.22105,619.75923 869.61495,618.81666 864.83122,639.04436 C 863.55009,646.61084 864.01687,655.64657 864.01687,661.0316 C 862.35199,662.99441 848.15038,665.52897 845.287,662.66028 C 843.44759,660.20773 841.11728,650.05309 840.40096,647.18778 C 838.61547,640.04585 835.99105,643.57709 829.00017,646.37344 C 825.30693,647.85073 818.32769,646.37344 814.34201,646.37344 C 808.27591,646.37344 796.77766,643.45244 792.35478,642.30173 C 787.9319,641.15103 786.14525,654.71705 780.95399,660.21726 C 777.69975,665.10331 764.45207,661.63086 763.03846,660.21725 C 759.23,654.10558 762.83912,634.28947 765.48149,627.64357 C 769.324,621.94621 774.92377,618.11416 780.13965,613.79976 C 789.72854,602.23698 776.24909,591.49313 794.7978,586.11213"
         style="fill:#c8c8c8;fill-opacity:1;fill-rule:evenodd;stroke:#000000;stroke-width:4;stroke-linecap:butt;stroke-linejoin:miter;stroke-miterlimit:4;stroke-dasharray:none;stroke-opacity:1" />
      <path
         sodipodi:nodetypes="czczczccc"
         id="path3248"
         d="M 770.36754,552.72412 C 779.23407,547.75876 783.97191,538.50535 796.42649,534.8086 C 808.88107,531.11185 825.89999,529.70084 829.00017,548.65241 C 829.78976,552.60035 828.63903,554.39433 829.00017,561.68188 C 829.36131,568.96943 826.1866,580.33618 820.04241,588.55517 C 812.83489,595.5753 805.34673,601.84375 798.86952,608.91372 C 792.39231,615.98369 785.68054,619.33852 777.69662,622.75753 C 769.87518,625.32223 761.65574,623.46873 754.0807,621.12885 C 742.67637,612.80724 749.88001,595.25999 750.00899,582.85477"
         style="fill:#c8c8c8;fill-opacity:1;fill-rule:evenodd;stroke:#000000;stroke-width:4;stroke-linecap:butt;stroke-linejoin:miter;stroke-miterlimit:4;stroke-dasharray:none;stroke-opacity:1" />
      <path
         sodipodi:nodetypes="cc"
         id="path3254"
         d="M 884.37542,608.09937 C 883.84225,623.35369 881.47703,632.26918 895.77621,639.85871"
         style="fill:none;fill-opacity:0.75;fill-rule:evenodd;stroke:#000000;stroke-width:4;stroke-linecap:butt;stroke-linejoin:miter;stroke-miterlimit:4;stroke-dasharray:none;stroke-opacity:1" />
      <path
         sodipodi:nodetypes="cc"
         id="path3256"
         d="M 736.97952,538.8803 C 730.90837,545.63953 730.98631,556.31202 729.65044,564.93924"
         style="fill:none;fill-opacity:0.75;fill-rule:evenodd;stroke:#000000;stroke-width:3;stroke-linecap:butt;stroke-linejoin:miter;stroke-miterlimit:4;stroke-dasharray:none;stroke-opacity:1" />
      <path
         id="path3264"
         d="M 764.24451,655.63288 C 763.77517,657.9405 763.61534,658.66826 765.46602,660.51893 C 766.10664,661.15956 770.97667,660.51893 771.98076,660.51893 C 774.12297,660.51893 770.99322,655.45969 770.75924,655.22571 C 769.72383,654.19029 765.38066,655.0648 764.24451,655.63288 z "
         style="fill:#ffffc8;fill-opacity:1;fill-rule:evenodd;stroke:#000000;stroke-width:1.5;stroke-linecap:butt;stroke-linejoin:miter;stroke-miterlimit:4;stroke-dasharray:none;stroke-opacity:1" />
      <path
         id="path3266"
         d="M 771.98075,655.63289 C 771.51141,657.94051 771.35158,658.66827 773.20226,660.51894 C 773.84288,661.15957 778.71291,660.51894 779.717,660.51894 C 781.85921,660.51894 778.72946,655.4597 778.49548,655.22572 C 777.46007,654.1903 773.1169,655.06481 771.98075,655.63289 z "
         style="fill:#ffffc8;fill-opacity:1;fill-rule:evenodd;stroke:#000000;stroke-width:1.5;stroke-linecap:butt;stroke-linejoin:miter;stroke-miterlimit:4;stroke-dasharray:none;stroke-opacity:1" />
      <path
         id="path3268"
         d="M 844.86436,658.07591 C 844.39502,660.38353 844.23519,661.11129 846.08587,662.96196 C 846.72649,663.60259 851.59652,662.96196 852.60061,662.96196 C 854.74282,662.96196 851.61307,657.90272 851.37909,657.66874 C 850.34368,656.63332 846.00051,657.50783 844.86436,658.07591 z "
         style="fill:#ffffc8;fill-opacity:1;fill-rule:evenodd;stroke:#000000;stroke-width:1.5;stroke-linecap:butt;stroke-linejoin:miter;stroke-miterlimit:4;stroke-dasharray:none;stroke-opacity:1" />
      <path
         id="path3270"
         d="M 853.82212,656.8544 C 853.35278,659.16202 853.19295,659.88978 855.04363,661.74045 C 855.68425,662.38108 860.55428,661.74045 861.55837,661.74045 C 863.70058,661.74045 860.57083,656.68121 860.33685,656.44723 C 859.30144,655.41181 854.95827,656.28632 853.82212,656.8544 z "
         style="fill:#ffffc8;fill-opacity:1;fill-rule:evenodd;stroke:#000000;stroke-width:1.5;stroke-linecap:butt;stroke-linejoin:miter;stroke-miterlimit:4;stroke-dasharray:none;stroke-opacity:1" />
    </g>
  </g>
</svg>
