<?xml version="1.0" encoding="UTF-8" standalone="no"?>
<!-- Created with Inkscape (http://www.inkscape.org/) -->

<svg
   xmlns:dc="http://purl.org/dc/elements/1.1/"
   xmlns:cc="http://creativecommons.org/ns#"
   xmlns:rdf="http://www.w3.org/1999/02/22-rdf-syntax-ns#"
   xmlns:svg="http://www.w3.org/2000/svg"
   xmlns="http://www.w3.org/2000/svg"
   xmlns:sodipodi="http://sodipodi.sourceforge.net/DTD/sodipodi-0.dtd"
   xmlns:inkscape="http://www.inkscape.org/namespaces/inkscape"
   id="svg13691"
   version="1.1"
   inkscape:version="0.48.1 "
   width="280"
   height="271.25"
   xml:space="preserve"
   sodipodi:docname="Fox_06.pdf"><metadata
     id="metadata13697"><rdf:RDF><cc:Work
         rdf:about=""><dc:format>image/svg+xml</dc:format><dc:type
           rdf:resource="http://purl.org/dc/dcmitype/StillImage" /><dc:title></dc:title></cc:Work></rdf:RDF></metadata><defs
     id="defs13695" /><sodipodi:namedview
     pagecolor="#ffffff"
     bordercolor="#666666"
     borderopacity="1"
     objecttolerance="10"
     gridtolerance="10"
     guidetolerance="10"
     inkscape:pageopacity="0"
     inkscape:pageshadow="2"
     inkscape:window-width="640"
     inkscape:window-height="480"
     id="namedview13693"
     showgrid="false"
     inkscape:zoom="1.0728111"
     inkscape:cx="140"
     inkscape:cy="135.625"
     inkscape:window-x="387"
     inkscape:window-y="107"
     inkscape:window-maximized="0"
     inkscape:current-layer="g13699" /><g
     id="g13699"
     inkscape:groupmode="layer"
     inkscape:label="Fox_06"
     transform="matrix(1.25,0,0,-1.25,0,271.25)"><g
       id="g13701"
       transform="scale(0.24,0.24)"><path
         d="m 316.469,193.105 c 0,0 -55.047,9.094 -63.141,10.711 -8.223,1.618 -24.414,30.883 -32.633,13.075 -4.73,-10.582 -18.804,-33.246 -13.949,-44.578 4.859,-11.458 27.649,-4.86 27.649,-4.86 0,0 -14.321,-14.32 -6.102,-24.156 8.094,-9.715 52.93,-8.094 52.93,1.617 0,31.008 76.843,12.578 91.164,0.375 15.07,-12.949 51.437,-14.941 56.293,7.844 11.832,27.273 -82.321,59.898 -112.211,39.972"
         style="fill:#231f20;fill-opacity:1;fill-rule:nonzero;stroke:none"
         id="path13703" /><path
         d="m 316.469,193.105 c 0,0 -55.047,9.094 -63.141,10.711 -8.223,1.618 -24.414,30.883 -32.633,13.075 -4.73,-10.582 -18.804,-33.246 -13.949,-44.578 4.859,-11.458 27.649,-4.86 27.649,-4.86 0,0 -14.321,-14.32 -6.102,-24.156 8.094,-9.715 52.93,-8.094 52.93,1.617 0,31.008 76.843,12.578 91.164,0.375 15.07,-12.949 51.437,-14.941 56.293,7.844 11.832,27.273 -82.321,59.898 -112.211,39.972 z"
         style="fill:none;stroke:#231f20;stroke-opacity:1;stroke-width:1.8;stroke-linecap:butt;stroke-linejoin:miter;stroke-miterlimit:4;stroke-dasharray:none"
         id="path13705" /><path
         d="m 420.586,297.086 c 0,0 82.945,-11.953 106.98,10.461 23.911,22.289 14.821,76.832 89.543,74.34 74.852,-2.614 92.039,-117.801 56.543,-179.067 -35.617,-61.265 -125.785,-52.55 -154.183,-65.625 -28.395,-13.199 -106.856,-7.843 -113.207,19.301 -42.715,33.996 -17.684,146.567 14.324,140.59"
         style="fill:#231f20;fill-opacity:1;fill-rule:nonzero;stroke:none"
         id="path13707" /><path
         d="m 420.586,297.086 c 0,0 82.945,-11.953 106.98,10.461 23.911,22.289 14.821,76.832 89.543,74.34 74.852,-2.614 92.039,-117.801 56.543,-179.067 -35.617,-61.265 -125.785,-52.55 -154.183,-65.625 -28.395,-13.199 -106.856,-7.843 -113.207,19.301 -42.715,33.996 -17.684,146.567 14.324,140.59 z"
         style="fill:none;stroke:#231f20;stroke-opacity:1;stroke-width:1.8;stroke-linecap:butt;stroke-linejoin:miter;stroke-miterlimit:4;stroke-dasharray:none"
         id="path13709" /><path
         d="m 91.6719,624.34 c 0,0 6.8476,-94.016 13.6991,-112.82 6.727,-18.805 9.09,-92.274 3.363,-95.637 -5.73,-3.485 -33.6246,-6.352 -25.6559,-29.137 7.9688,-22.789 16.4375,-7.598 35.8669,-17.062 19.555,-9.465 44.961,23.66 41.348,48.441 -4.98,33.996 -4.98,67.992 11.957,99.121 10.211,18.805 18.805,52.926 20.547,76.832 1.746,24.035 -102.8712,30.262 -101.1251,30.262"
         style="fill:#231f20;fill-opacity:1;fill-rule:nonzero;stroke:none"
         id="path13711" /><path
         d="m 91.6719,624.34 c 0,0 6.8476,-94.016 13.6991,-112.82 6.727,-18.805 9.09,-92.274 3.363,-95.637 -5.73,-3.485 -33.6246,-6.352 -25.6559,-29.137 7.9688,-22.789 16.4375,-7.598 35.8669,-17.062 19.555,-9.465 44.961,23.66 41.348,48.441 -4.98,33.996 -4.98,67.992 11.957,99.121 10.211,18.805 18.805,52.926 20.547,76.832 1.746,24.035 -102.8712,30.262 -101.1251,30.262 z"
         style="fill:none;stroke:#231f20;stroke-opacity:1;stroke-width:1.8;stroke-linecap:butt;stroke-linejoin:miter;stroke-miterlimit:4;stroke-dasharray:none"
         id="path13713" /><path
         d="m 322.445,624.715 c 0,0 16.692,-73.598 55.797,-85.426 38.981,-11.832 77.961,-23.285 81.699,-36.609 3.735,-13.325 -23.414,-42.34 -27.152,-58.653 -3.734,-16.312 -32.254,-12.203 -34.125,-27.023 -1.867,-14.695 2.617,-25.152 18.684,-25.152 21.543,0 46.328,1.242 55.918,4.98 14.82,5.977 31.136,104.602 42.343,123.777 11.086,19.301 -74.101,30.508 -61.273,43.832 143.969,147.317 -154.434,146.196 -131.891,60.274"
         style="fill:#231f20;fill-opacity:1;fill-rule:nonzero;stroke:none"
         id="path13715" /><path
         d="m 322.445,624.715 c 0,0 16.692,-73.598 55.797,-85.426 38.981,-11.832 77.961,-23.285 81.699,-36.609 3.735,-13.325 -23.414,-42.34 -27.152,-58.653 -3.734,-16.312 -32.254,-12.203 -34.125,-27.023 -1.867,-14.695 2.617,-25.152 18.684,-25.152 21.543,0 46.328,1.242 55.918,4.98 14.82,5.977 31.136,104.602 42.343,123.777 11.086,19.301 -74.101,30.508 -61.273,43.832 143.969,147.317 -154.434,146.196 -131.891,60.274 z"
         style="fill:none;stroke:#231f20;stroke-opacity:1;stroke-width:1.8;stroke-linecap:butt;stroke-linejoin:miter;stroke-miterlimit:4;stroke-dasharray:none"
         id="path13717" /><path
         d="m 198.902,848.238 c 0,0 63.266,-46.074 68.371,-70.109 5.106,-23.91 135.129,24.781 222.184,-7.719 87.18,-32.504 78.336,-84.305 80.078,-103.109 C 578.504,567.555 380.234,549.996 325.188,564.566 202.887,596.695 169.883,549.625 94.5352,649.992 68.3828,715.617 134.637,877.5 198.902,848.238"
         style="fill:#231f20;fill-opacity:1;fill-rule:nonzero;stroke:none"
         id="path13719" /><path
         d="m 198.902,848.238 c 0,0 63.266,-46.074 68.371,-70.109 5.106,-23.91 135.129,24.781 222.184,-7.719 87.18,-32.504 78.336,-84.305 80.078,-103.109 C 578.504,567.555 380.234,549.996 325.188,564.566 202.887,596.695 169.883,549.625 94.5352,649.992 68.3828,715.617 134.637,877.5 198.902,848.238 z"
         style="fill:none;stroke:#231f20;stroke-opacity:1;stroke-width:1.8;stroke-linecap:butt;stroke-linejoin:miter;stroke-miterlimit:4;stroke-dasharray:none"
         id="path13721" /><path
         d="M 15.0781,837.527 C 6.48438,828.934 -5.34766,755.965 21.9297,713.25 49.3281,670.539 68.0078,622.098 100.512,606.781 221.566,549.375 204.754,842.012 163.781,862.559 125.047,896.676 24.793,847.363 15.0781,837.527"
         style="fill:#231f20;fill-opacity:1;fill-rule:nonzero;stroke:none"
         id="path13723" /><path
         d="M 15.0781,837.527 C 6.48438,828.934 -5.34766,755.965 21.9297,713.25 49.3281,670.539 68.0078,622.098 100.512,606.781 221.566,549.375 204.754,842.012 163.781,862.559 125.047,896.676 24.793,847.363 15.0781,837.527 z"
         style="fill:none;stroke:#231f20;stroke-opacity:1;stroke-width:1.8;stroke-linecap:butt;stroke-linejoin:miter;stroke-miterlimit:4;stroke-dasharray:none"
         id="path13725" /><path
         d="m 525.199,749.113 c 0,0 169.254,10.211 215.457,-63.258 46.203,-73.472 131.641,-193.015 165.891,-208.457 34.121,-15.191 48.941,-101.488 -79.336,-75.835 -128.277,25.652 -230.648,105.847 -227.16,186.289 3.359,80.32 -16.692,115.062 -44.09,123.656 -27.273,8.594 -30.762,40.969 -30.762,37.605"
         style="fill:#231f20;fill-opacity:1;fill-rule:nonzero;stroke:none"
         id="path13727" /><path
         d="m 525.199,749.113 c 0,0 169.254,10.211 215.457,-63.258 46.203,-73.472 131.641,-193.015 165.891,-208.457 34.121,-15.191 48.941,-101.488 -79.336,-75.835 -128.277,25.652 -230.648,105.847 -227.16,186.289 3.359,80.32 -16.692,115.062 -44.09,123.656 -27.273,8.594 -30.762,40.969 -30.762,37.605 z"
         style="fill:none;stroke:#231f20;stroke-opacity:1;stroke-width:1.8;stroke-linecap:butt;stroke-linejoin:miter;stroke-miterlimit:4;stroke-dasharray:none"
         id="path13729" /><path
         d="m 429.426,550.871 c 20.801,-11.336 95.773,-21.422 99.262,-36.738 3.359,-15.442 -3.739,-50.68 -7.098,-69.485 -3.488,-18.804 -37.613,-15.316 -39.356,-32.375 -1.746,-17.187 -12.332,-34.371 16.688,-34.371 29.141,0 46.703,0.5 48.445,17.559 1.746,17.059 1.246,8.965 14.946,15.816 13.699,6.848 9.714,84.801 20.05,106.965 10.215,22.293 -52.058,32.379 -42.84,49.563 93.157,173.09 -131.019,-5.606 -110.097,-16.934"
         style="fill:#231f20;fill-opacity:1;fill-rule:nonzero;stroke:none"
         id="path13731" /><path
         d="m 429.426,550.871 c 20.801,-11.336 95.773,-21.422 99.262,-36.738 3.359,-15.442 -3.739,-50.68 -7.098,-69.485 -3.488,-18.804 -37.613,-15.316 -39.356,-32.375 -1.746,-17.187 -12.332,-34.371 16.688,-34.371 29.141,0 46.703,0.5 48.445,17.559 1.746,17.059 1.246,8.965 14.946,15.816 13.699,6.848 9.714,84.801 20.05,106.965 10.215,22.293 -52.058,32.379 -42.84,49.563 93.157,173.09 -131.019,-5.606 -110.097,-16.934 z"
         style="fill:none;stroke:#231f20;stroke-opacity:1;stroke-width:1.8;stroke-linecap:butt;stroke-linejoin:miter;stroke-miterlimit:4;stroke-dasharray:none"
         id="path13733" /><path
         d="m 190.805,592.711 c 0,0 1.746,-71.727 -1.742,-88.914 -3.364,-17.059 -23.915,-97.254 -34.125,-104.102 -10.336,-6.847 -20.547,0 -22.293,-15.441 -1.743,-15.316 -0.872,-28.641 -0.872,-28.641 0,0 49.817,-10.336 61.774,-1.742 11.957,8.59 13.699,17.059 11.957,30.758 -1.621,13.695 10.336,59.023 20.547,72.723 10.211,13.574 47.824,47.691 54.672,90.527 6.851,42.715 -6.102,65.379 -6.102,84.18 1.992,36.738 -79.582,-21.293 -83.816,-39.348"
         style="fill:#231f20;fill-opacity:1;fill-rule:nonzero;stroke:none"
         id="path13735" /><path
         d="m 190.805,592.711 c 0,0 1.746,-71.727 -1.742,-88.914 -3.364,-17.059 -23.915,-97.254 -34.125,-104.102 -10.336,-6.847 -20.547,0 -22.293,-15.441 -1.743,-15.316 -0.872,-28.641 -0.872,-28.641 0,0 49.817,-10.336 61.774,-1.742 11.957,8.59 13.699,17.059 11.957,30.758 -1.621,13.695 10.336,59.023 20.547,72.723 10.211,13.574 47.824,47.691 54.672,90.527 6.851,42.715 -6.102,65.379 -6.102,84.18 1.992,36.738 -79.582,-21.293 -83.816,-39.348 z"
         style="fill:none;stroke:#231f20;stroke-opacity:1;stroke-width:1.8;stroke-linecap:butt;stroke-linejoin:miter;stroke-miterlimit:4;stroke-dasharray:none"
         id="path13737" /><path
         d="m 462.68,173.309 c 0,0 -46.953,-71.602 -60.028,-74.8402 -13.078,-3.3633 -56.918,-31.629 -79.707,-28.3946 -41.722,5.9766 -42.468,-33.1211 -34.996,-33.9922 28.52,-3.4882 24.16,-1.4961 22.168,-15.6914 -1.496,-9.9648 15.196,-25.03123 21.422,-15.44138 10.086,15.31638 15.066,0.87109 18.43,2.98828 17.808,11.457 41.972,43.582 41.972,43.582 0,0 51.934,26.5274 42.594,24.1602 -9.344,-2.4922 68.996,32.7503 95.274,52.3003 44.586,33.372 -59.157,123.903 -67.129,45.329"
         style="fill:#231f20;fill-opacity:1;fill-rule:nonzero;stroke:none"
         id="path13739" /><path
         d="m 462.68,173.309 c 0,0 -46.953,-71.602 -60.028,-74.8402 -13.078,-3.3633 -56.918,-31.629 -79.707,-28.3946 -41.722,5.9766 -42.468,-33.1211 -34.996,-33.9922 28.52,-3.4882 24.16,-1.4961 22.168,-15.6914 -1.496,-9.9648 15.196,-25.03123 21.422,-15.44138 10.086,15.31638 15.066,0.87109 18.43,2.98828 17.808,11.457 41.972,43.582 41.972,43.582 0,0 51.934,26.5274 42.594,24.1602 -9.344,-2.4922 68.996,32.7503 95.274,52.3003 44.586,33.372 -59.157,123.903 -67.129,45.329 z"
         style="fill:none;stroke:#231f20;stroke-opacity:1;stroke-width:1.8;stroke-linecap:butt;stroke-linejoin:miter;stroke-miterlimit:4;stroke-dasharray:none"
         id="path13741" /><path
         d="m 672.656,347.02 c 0,0 34.125,-81.313 22.793,-107.34 -11.461,-26.028 32.504,-9.836 32.504,-9.836 0,0 3.238,-108.59 -3.238,-126.52 -6.477,-17.9334 -95.024,-19.9256 -88.551,-3.6092 6.477,16.3122 6.477,35.1132 21.172,41.7152 14.574,6.476 27.277,16.187 30.887,27.894 3.613,11.703 -16.313,-1.246 -40.598,1.992 -47.574,6.348 -38.359,222.278 25.031,175.704"
         style="fill:#231f20;fill-opacity:1;fill-rule:nonzero;stroke:none"
         id="path13743" /><path
         d="m 672.656,347.02 c 0,0 34.125,-81.313 22.793,-107.34 -11.461,-26.028 32.504,-9.836 32.504,-9.836 0,0 3.238,-108.59 -3.238,-126.52 -6.477,-17.9334 -95.024,-19.9256 -88.551,-3.6092 6.477,16.3122 6.477,35.1132 21.172,41.7152 14.574,6.476 27.277,16.187 30.887,27.894 3.613,11.703 -16.313,-1.246 -40.598,1.992 -47.574,6.348 -38.359,222.278 25.031,175.704 z"
         style="fill:none;stroke:#231f20;stroke-opacity:1;stroke-width:1.8;stroke-linecap:butt;stroke-linejoin:miter;stroke-miterlimit:4;stroke-dasharray:none"
         id="path13745" /><path
         d="m 330.168,189.746 c 0,0 -64.762,3.113 -72.609,4.731 -7.844,1.496 -23.661,29.886 -31.633,12.578 -7.848,-17.309 -7.848,-26.774 3.238,-26.774 11.086,0 -15.816,-1.621 -11.086,-12.703 4.735,-11.082 26.902,-4.73 26.902,-4.73 0,0 -15.816,-6.352 -7.968,-15.817 7.968,-9.461 36.363,-7.843 36.363,1.621 0,9.461 27.898,21.668 58.41,14.196 30.391,-7.473 32.879,-4.981 48.945,-15.817 15.942,-10.832 34.625,-3.113 39.356,19.055 4.734,22.039 -89.918,23.66 -89.918,23.66"
         style="fill:#f68712;fill-opacity:1;fill-rule:nonzero;stroke:none"
         id="path13747" /><path
         d="m 330.168,189.746 c 0,0 -64.762,3.113 -72.609,4.731 -7.844,1.496 -23.661,29.886 -31.633,12.578 -7.848,-17.309 -7.848,-26.774 3.238,-26.774 11.086,0 -15.816,-1.621 -11.086,-12.703 4.735,-11.082 26.902,-4.73 26.902,-4.73 0,0 -15.816,-6.352 -7.968,-15.817 7.968,-9.461 36.363,-7.843 36.363,1.621 0,9.461 27.898,21.668 58.41,14.196 30.391,-7.473 32.879,-4.981 48.945,-15.817 15.942,-10.832 34.625,-3.113 39.356,19.055 4.734,22.039 -89.918,23.66 -89.918,23.66 z"
         style="fill:none;stroke:#231f20;stroke-opacity:1;stroke-width:1.8;stroke-linecap:butt;stroke-linejoin:miter;stroke-miterlimit:4;stroke-dasharray:none"
         id="path13749" /><path
         d="m 243.363,200.703 c 0,0 -7.972,-22.043 6.352,-26.773 14.195,-4.731 -1.621,-15.817 14.195,-15.817 15.695,0 52.059,15.817 72.61,11.086 20.425,-4.734 34.621,3.114 15.691,11.082 -18.93,7.844 -48.945,7.844 -69.367,7.844 -20.551,0 -39.481,12.578 -39.481,12.578"
         style="fill:#3d3a3b;fill-opacity:1;fill-rule:nonzero;stroke:none"
         id="path13751" /><path
         d="m 243.363,200.703 c 0,0 -7.972,-22.043 6.352,-26.773 14.195,-4.731 -1.621,-15.817 14.195,-15.817 15.695,0 52.059,15.817 72.61,11.086 20.425,-4.734 34.621,3.114 15.691,11.082 -18.93,7.844 -48.945,7.844 -69.367,7.844 -20.551,0 -39.481,12.578 -39.481,12.578 z"
         style="fill:none;stroke:#231f20;stroke-opacity:1;stroke-width:0.9;stroke-linecap:butt;stroke-linejoin:miter;stroke-miterlimit:4;stroke-dasharray:none"
         id="path13753" /><path
         d="m 431.172,292.477 c 0,0 80.578,-7.719 103.742,13.949 23.289,21.668 14.445,70.73 87.055,68.363 72.484,-2.488 68.371,-114.437 33.875,-173.836 -34.5,-59.277 -101.129,-41.344 -128.653,-54.168 -27.523,-12.828 -103.742,-17.062 -109.968,9.34 -41.223,32.871 -16.938,142.082 13.949,136.352"
         style="fill:#fffef0;fill-opacity:1;fill-rule:nonzero;stroke:none"
         id="path13755" /><path
         d="m 431.172,292.477 c 0,0 80.578,-7.719 103.742,13.949 23.289,21.668 14.445,70.73 87.055,68.363 72.484,-2.488 68.371,-114.437 33.875,-173.836 -34.5,-59.277 -101.129,-41.344 -128.653,-54.168 -27.523,-12.828 -103.742,-17.062 -109.968,9.34 -41.223,32.871 -16.938,142.082 13.949,136.352 z"
         style="fill:none;stroke:#231f20;stroke-opacity:1;stroke-width:1.8;stroke-linecap:butt;stroke-linejoin:miter;stroke-miterlimit:4;stroke-dasharray:none"
         id="path13757" /><path
         d="m 436.527,290.984 c 0,0 76.965,-7.472 99.258,13.2 22.293,20.546 15.817,72.597 85.188,70.234 69.492,-2.242 63.265,-109.957 30.261,-166.367 -33.004,-56.41 -95.148,-38.356 -121.55,-50.434 -26.403,-12.203 -98.016,-18.304 -103.868,6.723 -39.605,31.258 -18.929,132.125 10.711,126.644"
         style="fill:#fde8c0;fill-opacity:1;fill-rule:nonzero;stroke:none"
         id="path13759" /><path
         d="m 441.758,289.367 c 0,0 73.601,-6.976 94.898,12.574 21.172,19.551 17.063,74.469 83.442,72.227 66.257,-2.242 58.039,-105.723 26.531,-159.145 -31.637,-53.421 -89.297,-35.117 -114.457,-46.695 -25.156,-11.457 -92.16,-19.551 -97.887,4.231 -37.738,29.64 -20.801,122.035 7.473,116.808"
         style="fill:#fcd497;fill-opacity:1;fill-rule:nonzero;stroke:none"
         id="path13761" /><path
         d="m 447.113,287.871 c 0,0 70.117,-6.598 90.293,11.832 20.297,18.426 18.555,76.332 81.699,74.215 63.266,-2.117 52.93,-101.363 22.79,-151.797 -30.016,-50.558 -83.317,-32.129 -107.231,-42.961 -24.035,-10.832 -86.43,-20.797 -91.785,1.617 -35.992,27.895 -22.793,112.075 4.234,107.094"
         style="fill:#fabe6f;fill-opacity:1;fill-rule:nonzero;stroke:none"
         id="path13763" /><path
         d="m 452.344,286.375 c 0,0 66.629,-6.223 85.933,11.086 19.18,17.434 19.926,78.199 79.953,76.207 60.032,-1.992 47.7,-97.129 19.055,-144.574 -28.519,-47.442 -77.34,-28.887 -100.129,-39.102 -22.914,-10.211 -80.828,-22.039 -85.808,-0.996 -34.25,26.277 -24.66,101.988 0.996,97.379"
         style="fill:#f9ab4c;fill-opacity:1;fill-rule:nonzero;stroke:none"
         id="path13765" /><path
         d="m 457.574,284.883 c 0,0 63.266,-5.852 81.449,10.461 18.309,16.187 21.297,79.945 78.211,78.078 57.039,-1.871 42.594,-92.899 15.446,-137.356 -27.028,-44.453 -71.489,-25.773 -93.157,-35.363 -21.546,-9.59 -74.976,-23.285 -79.832,-3.488 -32.257,24.656 -26.402,92.023 -2.117,87.668"
         style="fill:#f7972e;fill-opacity:1;fill-rule:nonzero;stroke:none"
         id="path13767" /><path
         d="m 462.805,283.262 c 0,0 59.906,-5.352 77.09,9.84 17.312,15.066 22.668,81.812 76.468,80.07 53.801,-1.742 37.364,-88.539 11.707,-130.004 -25.656,-41.594 -65.507,-22.664 -86.058,-31.633 -20.422,-8.965 -69.121,-24.531 -73.727,-6.101 -30.637,22.914 -28.394,81.937 -5.48,77.828"
         style="fill:#f68712;fill-opacity:1;fill-rule:nonzero;stroke:none"
         id="path13769" /><path
         d="m 101.262,618.363 c 0,0 6.722,-91.277 13.324,-109.457 6.602,-18.308 8.844,-89.535 3.363,-92.773 -5.605,-3.363 -32.6287,-6.102 -24.9099,-28.266 7.7229,-22.043 15.9409,-7.472 34.8749,-16.562 18.805,-9.09 26.652,12.328 23.164,36.484 -4.855,33 -4.855,65.875 11.582,96.133 9.961,18.183 18.309,51.305 19.926,74.594 1.621,23.16 -82.9454,39.847 -81.324,39.847"
         style="fill:#f46b17;fill-opacity:1;fill-rule:nonzero;stroke:none"
         id="path13771" /><path
         d="m 101.262,618.363 c 0,0 6.722,-91.277 13.324,-109.457 6.602,-18.308 8.844,-89.535 3.363,-92.773 -5.605,-3.363 -32.6287,-6.102 -24.9099,-28.266 7.7229,-22.043 15.9409,-7.472 34.8749,-16.562 18.805,-9.09 26.652,12.328 23.164,36.484 -4.855,33 -4.855,65.875 11.582,96.133 9.961,18.183 18.309,51.305 19.926,74.594 1.621,23.16 -82.9454,39.847 -81.324,39.847 z"
         style="fill:none;stroke:#231f20;stroke-opacity:1;stroke-width:1.8;stroke-linecap:butt;stroke-linejoin:miter;stroke-miterlimit:4;stroke-dasharray:none"
         id="path13773" /><path
         d="m 344.488,620.48 c 0,0 14.825,-71.23 49.696,-82.812 34.871,-11.453 69.617,-22.664 72.855,-35.488 3.363,-12.95 -13.203,-38.977 -16.441,-54.793 -3.364,-15.813 -36.489,-12.949 -38.11,-27.27 -1.742,-14.32 2.242,-24.406 16.567,-24.406 14.32,0 21.543,-10.086 31.383,4.234 9.964,14.446 1.621,15.813 14.945,21.543 13.203,5.727 18.183,70.231 28.148,88.91 9.961,18.68 -52.933,38.852 -41.472,51.68 C 590.461,704.906 324.313,703.91 344.488,620.48"
         style="fill:#bf5224;fill-opacity:1;fill-rule:nonzero;stroke:none"
         id="path13775" /><path
         d="m 344.488,620.48 c 0,0 14.825,-71.23 49.696,-82.812 34.871,-11.453 69.617,-22.664 72.855,-35.488 3.363,-12.95 -13.203,-38.977 -16.441,-54.793 -3.364,-15.813 -36.489,-12.949 -38.11,-27.27 -1.742,-14.32 2.242,-24.406 16.567,-24.406 14.32,0 21.543,-10.086 31.383,4.234 9.964,14.446 1.621,15.813 14.945,21.543 13.203,5.727 18.183,70.231 28.148,88.91 9.961,18.68 -52.933,38.852 -41.472,51.68 C 590.461,704.906 324.313,703.91 344.488,620.48 z"
         style="fill:none;stroke:#231f20;stroke-opacity:1;stroke-width:1.8;stroke-linecap:butt;stroke-linejoin:miter;stroke-miterlimit:4;stroke-dasharray:none"
         id="path13777" /><path
         d="m 207.496,835.535 c 0,0 61.399,-44.703 66.379,-67.992 4.98,-23.16 131.02,28.27 215.457,-3.234 84.563,-31.508 69.742,-71.356 71.363,-89.661 1.618,-18.179 -29.515,-39.226 -46.453,-64.628 -16.941,-25.403 -103.496,-57.782 -222.183,-26.524 -118.688,31.129 -112.711,-37.73 -185.817,59.649 -25.4061,63.753 38.981,220.781 101.254,192.39"
         style="fill:#fffdde;fill-opacity:1;fill-rule:nonzero;stroke:none"
         id="path13779" /><path
         d="m 207.496,835.535 c 0,0 61.399,-44.703 66.379,-67.992 4.98,-23.16 131.02,28.27 215.457,-3.234 84.563,-31.508 69.742,-71.356 71.363,-89.661 1.618,-18.179 -29.515,-39.226 -46.453,-64.628 -16.941,-25.403 -103.496,-57.782 -222.183,-26.524 -118.688,31.129 -112.711,-37.73 -185.817,59.649 -25.4061,63.753 38.981,220.781 101.254,192.39 z"
         style="fill:none;stroke:#231f20;stroke-opacity:1;stroke-width:1.8;stroke-linecap:butt;stroke-linejoin:miter;stroke-miterlimit:4;stroke-dasharray:none"
         id="path13781" /><path
         d="m 213.848,826.82 c 0,0 59.281,-40.847 64.261,-62.39 4.981,-21.418 125.664,27.644 207.114,-0.746 81.449,-28.266 72.73,-64.879 74.351,-81.813 1.742,-16.937 -33.254,-37.109 -49.32,-61.019 -16.066,-23.786 -99.008,-54.664 -213.215,-27.02 -114.328,27.645 -107.976,-36.113 -178.965,53.422 -24.9099,58.898 35.742,205.094 95.774,179.566"
         style="fill:#feebba;fill-opacity:1;fill-rule:nonzero;stroke:none"
         id="path13783" /><path
         d="m 220.199,817.977 c 0,0 57.289,-36.985 62.145,-56.661 4.98,-19.796 120.433,26.899 198.769,1.868 78.461,-25.153 75.594,-58.524 77.465,-74.09 1.742,-15.567 -36.988,-35.117 -52.308,-57.281 -15.196,-22.168 -94.528,-51.68 -204.372,-27.52 -109.847,24.031 -103.246,-34.746 -172.117,46.945 -24.41,54.043 32.629,189.653 90.418,166.739"
         style="fill:#fcd996;fill-opacity:1;fill-rule:nonzero;stroke:none"
         id="path13785" /><path
         d="m 226.672,809.262 c 0,0 55.051,-33.125 60.031,-51.059 4.856,-18.055 114.949,26.277 190.176,4.36 75.469,-21.793 78.711,-52.051 80.578,-66.247 1.867,-14.32 -40.727,-33.125 -55.172,-53.671 -14.324,-20.422 -89.922,-48.567 -195.406,-28.02 -105.363,20.547 -98.637,-33.121 -165.266,40.723 -23.914,49.062 29.391,173.961 85.059,153.914"
         style="fill:#fbc777;fill-opacity:1;fill-rule:nonzero;stroke:none"
         id="path13787" /><path
         d="m 233.027,800.418 c 0,0 53.051,-29.137 57.911,-45.453 4.98,-16.188 109.722,25.781 181.828,7.101 72.359,-18.679 81.703,-45.703 83.695,-58.652 1.992,-12.828 -44.586,-31.008 -58.164,-49.812 -13.449,-18.801 -85.434,-45.575 -186.438,-28.516 -101.004,16.937 -93.902,-31.754 -158.539,34.246 -23.289,44.207 26.278,158.52 79.707,141.086"
         style="fill:#fab45b;fill-opacity:1;fill-rule:nonzero;stroke:none"
         id="path13789" /><path
         d="m 239.379,791.578 c 0,0 51.059,-25.156 55.918,-39.723 4.855,-14.57 104.242,25.153 173.359,9.711 69.246,-15.566 84.692,-39.351 86.684,-50.929 2.117,-11.582 -48.199,-29.016 -60.902,-46.199 -12.704,-17.184 -81.075,-42.465 -177.719,-29.016 -96.52,13.449 -89.172,-30.137 -151.571,27.894 -22.914,39.352 23.043,142.957 74.231,128.262"
         style="fill:#f8a43f;fill-opacity:1;fill-rule:nonzero;stroke:none"
         id="path13791" /><path
         d="m 245.73,782.859 c 0,0 48.942,-21.293 53.801,-34.117 4.856,-12.828 99.012,24.531 165.016,12.203 66.133,-12.203 87.68,-32.875 89.797,-43.086 2.117,-10.211 -52.059,-27.023 -63.891,-42.464 -11.832,-15.567 -76.594,-39.473 -168.754,-29.637 -92.16,9.961 -84.562,-28.641 -144.719,21.668 -22.414,34.367 19.93,127.39 68.75,115.433"
         style="fill:#f79528;fill-opacity:1;fill-rule:nonzero;stroke:none"
         id="path13793" /><path
         d="m 252.203,774.02 c 0,0 46.828,-17.309 51.688,-28.391 4.73,-11.086 93.531,23.906 156.547,14.816 63.019,-9.09 90.667,-26.523 92.91,-35.488 2.117,-8.844 -55.922,-24.906 -66.879,-38.727 -10.961,-13.824 -72.11,-36.363 -159.789,-30.011 -87.801,6.226 -79.832,-27.274 -137.992,15.191 -21.793,29.512 16.816,111.824 63.515,102.61"
         style="fill:#f68712;fill-opacity:1;fill-rule:nonzero;stroke:none"
         id="path13795" /><path
         d="M 33.2617,827.316 C 24.918,818.973 5.11719,746 31.6406,704.535 58.168,663.066 84.6953,618.363 116.207,603.418 c 31.508,-14.941 115.699,-32.875 92.906,6.602 -22.789,39.472 -56.789,38.476 -28.144,87.914 28.644,49.437 36.488,121.039 -3.364,140.964 -37.613,33.125 -134.7534,-2.117 -144.3433,-11.582"
         style="fill:#fffef0;fill-opacity:1;fill-rule:nonzero;stroke:none"
         id="path13797" /><path
         d="M 33.2617,827.316 C 24.918,818.973 5.11719,746 31.6406,704.535 58.168,663.066 84.6953,618.363 116.207,603.418 c 31.508,-14.941 115.699,-32.875 92.906,6.602 -22.789,39.472 -56.789,38.476 -28.144,87.914 28.644,49.437 36.488,121.039 -3.364,140.964 -37.613,33.125 -134.7534,-2.117 -144.3433,-11.582 z"
         style="fill:none;stroke:#231f20;stroke-opacity:1;stroke-width:1.8;stroke-linecap:butt;stroke-linejoin:miter;stroke-miterlimit:4;stroke-dasharray:none"
         id="path13799" /><path
         d="m 97.5234,739.773 c 0,0 0.75,-3.984 8.4686,-10.832 7.723,-6.726 26.903,-4.109 27.153,6.102 0.371,10.211 1.742,17.309 -3.364,19.426 -7.722,8.84 -38.1091,-0.125 -32.2576,-14.696"
         style="fill:#fffef0;fill-opacity:1;fill-rule:nonzero;stroke:none"
         id="path13801" /><path
         d="m 97.5234,739.773 c 0,0 0.75,-3.984 8.4686,-10.832 7.723,-6.726 26.903,-4.109 27.153,6.102 0.371,10.211 1.742,17.309 -3.364,19.426 -7.722,8.84 -38.1091,-0.125 -32.2576,-14.696 z"
         style="fill:none;stroke:#231f20;stroke-opacity:1;stroke-width:8.1;stroke-linecap:butt;stroke-linejoin:miter;stroke-miterlimit:4;stroke-dasharray:none"
         id="path13803" /><path
         d="m 101.512,746.125 c 0,0 0.496,-9.34 6.472,-10.336 5.981,-0.996 16.192,-2.242 19.68,3.488 3.488,5.727 2.988,15.813 -0.871,17.434 -5.98,6.723 -29.7657,0.621 -25.281,-10.586"
         style="fill:#991322;fill-opacity:1;fill-rule:nonzero;stroke:none"
         id="path13805" /><path
         d="m 101.512,746.125 c 0,0 0.496,-9.34 6.472,-10.336 5.981,-0.996 16.192,-2.242 19.68,3.488 3.488,5.727 2.988,15.813 -0.871,17.434 -5.98,6.723 -29.7657,0.621 -25.281,-10.586 z"
         style="fill:none;stroke:#231f20;stroke-opacity:1;stroke-width:0.9;stroke-linecap:butt;stroke-linejoin:miter;stroke-miterlimit:4;stroke-dasharray:none"
         id="path13807" /><path
         d="m 56.9258,858.82 c -6.7266,1.868 -28.3985,-33 -32.8828,-44.953 -4.4805,-12.078 15.5703,-31.133 32.8828,-45.078 17.3086,-13.824 93.5272,-10.336 107.3512,5.231 13.825,15.566 32.879,39.847 32.879,53.671 0,13.821 -43.215,34.618 -53.676,38.102 -10.335,3.488 -86.5542,-6.973 -86.5542,-6.973"
         style="fill:#bf5224;fill-opacity:1;fill-rule:nonzero;stroke:none"
         id="path13809" /><path
         d="m 56.9258,858.82 c -6.7266,1.868 -28.3985,-33 -32.8828,-44.953 -4.4805,-12.078 15.5703,-31.133 32.8828,-45.078 17.3086,-13.824 93.5272,-10.336 107.3512,5.231 13.825,15.566 32.879,39.847 32.879,53.671 0,13.821 -43.215,34.618 -53.676,38.102 -10.335,3.488 -86.5542,-6.973 -86.5542,-6.973 z"
         style="fill:none;stroke:#231f20;stroke-opacity:1;stroke-width:0.9;stroke-linecap:butt;stroke-linejoin:miter;stroke-miterlimit:4;stroke-dasharray:none"
         id="path13811" /><path
         d="M 59.6641,857.078 C 53.0625,859.07 31.8906,825.82 28.0313,814.117 24.043,802.285 42.7266,785.352 59.6641,771.031 76.6016,756.836 149.832,760.32 162.91,776.012 c 13.074,15.691 31.633,38.105 31.633,51.304 0,13.2 -41.598,33.125 -51.563,36.36 -10.085,3.363 -83.3159,-6.598 -83.3159,-6.598"
         style="fill:#c96c2d;fill-opacity:1;fill-rule:nonzero;stroke:none"
         id="path13813" /><path
         d="m 62.4023,855.461 c -6.4726,1.992 -27.0234,-29.641 -30.3867,-41.094 -3.4883,-11.582 13.6992,-26.402 30.3867,-41.094 16.5665,-14.695 86.9297,-11.082 99.1367,4.731 12.328,15.941 30.387,36.363 30.387,48.937 0,12.704 -39.977,31.633 -49.567,34.747 -9.589,3.234 -79.9567,-6.227 -79.9567,-6.227"
         style="fill:#d47328;fill-opacity:1;fill-rule:nonzero;stroke:none"
         id="path13815" /><path
         d="m 65.0195,853.715 c -6.3515,2.117 -26.2773,-27.77 -29.1445,-39.102 -2.8633,-11.332 12.9531,-24.031 29.1445,-39.097 16.3164,-15.071 83.6915,-11.582 95.1485,4.48 11.582,16.063 29.27,34.617 29.27,46.574 0,12.078 -38.36,30.133 -47.579,33.121 -9.214,2.989 -76.8395,-5.976 -76.8395,-5.976"
         style="fill:#da7624;fill-opacity:1;fill-rule:nonzero;stroke:none"
         id="path13817" /><path
         d="m 67.7578,851.973 c -6.2265,2.367 -25.5312,-26.028 -27.8945,-37.11 -2.3672,-11.082 11.9531,-21.668 27.8945,-37.109 15.9414,-15.441 80.4572,-11.953 91.1642,4.234 10.711,16.188 27.898,32.875 27.898,44.332 0,11.332 -36.738,28.516 -45.582,31.379 -8.843,2.867 -73.4802,-5.726 -73.4802,-5.726"
         style="fill:#e57d1e;fill-opacity:1;fill-rule:nonzero;stroke:none"
         id="path13819" /><path
         d="m 70.5,850.23 c -6.1016,2.489 -24.9102,-24.285 -26.6523,-35.117 -1.8672,-10.836 11.082,-19.3 26.6523,-35.117 15.5664,-15.812 77.09,-12.328 87.055,3.984 9.836,16.313 26.652,31.133 26.652,41.965 0,10.836 -35.121,27.024 -43.469,29.762 C 132.27,858.324 70.5,850.23 70.5,850.23"
         style="fill:#ed8218;fill-opacity:1;fill-rule:nonzero;stroke:none"
         id="path13821" /><path
         d="m 73.2383,848.484 c -5.9766,2.618 -24.1602,-22.539 -25.4063,-33.121 -1.3711,-10.586 10.0899,-16.937 25.4063,-33.25 15.1953,-16.187 73.8517,-12.578 82.9457,3.86 9.089,16.437 25.406,29.39 25.406,39.601 0,10.211 -33.5,25.528 -41.473,28.016 -8.094,2.617 -66.8787,-5.106 -66.8787,-5.106"
         style="fill:#f68712;fill-opacity:1;fill-rule:nonzero;stroke:none"
         id="path13823" /><path
         d="m 21.3047,809.883 c 0,0 18.9297,7.347 26.9023,2.117 7.9688,-5.105 34.9961,-10.711 39.3555,-10.336 4.3594,0.5 13.3245,-10.832 13.0745,-16.437 -1.3675,-26.524 26.031,-32.875 27.152,-8.594 0.996,19.426 -2.867,20.301 2.117,25.031 4.981,4.731 28.77,20.297 41.223,19.426 12.453,-0.871 16.191,2.617 20.176,6.601 4.109,3.86 8.843,-15.441 -0.5,-29.515 -3.86,-5.727 -12.078,-15.813 -20.922,-21.543 -12.953,-8.34 -25.406,-11.332 -26.778,-14.32 -2.367,-5.106 1.247,-19.051 -13.574,-18.676 -14.82,0.496 -14.945,9.586 -14.945,9.586 0,0 2.117,-8.59 -6.602,-11.703 -8.8395,-2.993 -22.7887,1.617 -21.9176,10.707 0.8711,9.089 0.125,12.203 -5.1055,12.703 -5.1054,0.371 -52.1836,4.359 -52.1836,11.207 -0.125,6.972 -11.332,17.308 -6.7226,12.949 4.4805,-4.234 -4.8594,6.477 0.6211,4.859 5.6055,-1.746 -1.3711,15.938 -1.3711,15.938"
         style="fill:#f8a057;fill-opacity:1;fill-rule:nonzero;stroke:none"
         id="path13825" /><path
         d="m 21.3047,809.883 c 0,0 18.9297,7.347 26.9023,2.117 7.9688,-5.105 34.9961,-10.711 39.3555,-10.336 4.3594,0.5 13.3245,-10.832 13.0745,-16.437 -1.3675,-26.524 26.031,-32.875 27.152,-8.594 0.996,19.426 -2.867,20.301 2.117,25.031 4.981,4.731 28.77,20.297 41.223,19.426 12.453,-0.871 16.191,2.617 20.176,6.601 4.109,3.86 8.843,-15.441 -0.5,-29.515 -3.86,-5.727 -12.078,-15.813 -20.922,-21.543 -12.953,-8.34 -25.406,-11.332 -26.778,-14.32 -2.367,-5.106 1.247,-19.051 -13.574,-18.676 -14.82,0.496 -14.945,9.586 -14.945,9.586 0,0 2.117,-8.59 -6.602,-11.703 -8.8395,-2.993 -22.7887,1.617 -21.9176,10.707 0.8711,9.089 0.125,12.203 -5.1055,12.703 -5.1054,0.371 -52.1836,4.359 -52.1836,11.207 -0.125,6.972 -11.332,17.308 -6.7226,12.949 4.4805,-4.234 -4.8594,6.477 0.6211,4.859 5.6055,-1.746 -1.3711,15.938 -1.3711,15.938 z"
         style="fill:none;stroke:#231f20;stroke-opacity:1;stroke-width:5.1;stroke-linecap:butt;stroke-linejoin:miter;stroke-miterlimit:4;stroke-dasharray:none"
         id="path13827" /><path
         d="m 23.4219,808.887 c 0,0 18.5586,6.972 26.2773,1.992 7.7227,-4.981 34,-10.336 38.2344,-9.961 4.2344,0.496 13.0784,-10.336 12.8284,-15.691 -1.2464,-25.528 25.406,-31.504 26.527,-8.344 0.871,18.68 -2.863,19.551 1.992,24.035 4.86,4.605 27.899,19.551 40.106,18.68 12.203,-0.75 15.816,2.488 19.676,6.222 3.984,3.739 8.593,-14.691 -0.5,-28.14 -3.735,-5.606 -11.704,-15.317 -20.297,-20.797 -12.707,-7.969 -25.161,-10.957 -26.528,-13.82 -2.242,-4.86 -0.5,-18.43 -13.453,-17.934 -12.828,0.5 -13.949,9.34 -13.949,9.34 0,0 2.117,-8.344 -6.352,-11.207 -8.5895,-2.864 -21.5426,0.996 -20.6715,9.715 0.7461,8.714 -0.625,12.324 -5.7305,12.699 -4.9804,0.375 -50.8125,4.109 -50.8125,10.836 -0.125,6.597 -11.082,16.558 -6.5976,12.449 4.4804,-4.231 -4.7344,6.227 0.6211,4.484 5.3554,-1.617 -1.3711,15.442 -1.3711,15.442"
         style="fill:#fab476;fill-opacity:1;fill-rule:nonzero;stroke:none"
         id="path13829" /><path
         d="m 25.5391,807.766 c 0,0 18.0586,6.726 25.6562,1.992 7.4727,-4.731 33.1289,-9.961 37.2383,-9.59 4.1094,0.5 12.7034,-9.836 12.4534,-15.066 -1.2464,-24.407 24.785,-30.137 25.781,-7.969 0.871,17.93 -2.742,18.68 1.992,23.035 4.731,4.359 27.149,18.68 39.106,17.934 11.832,-0.747 15.32,2.367 19.179,5.976 3.86,3.613 8.344,-14.07 -0.5,-27.023 -3.609,-5.227 -11.457,-14.567 -19.8,-19.797 -12.329,-7.723 -24.907,-10.586 -26.153,-13.449 C 138.25,759.199 138,746 127.039,746.625 c -10.832,0.496 -12.824,9.09 -12.824,9.09 0,0 1.992,-7.969 -6.352,-10.711 -8.3474,-2.863 -20.3005,0.375 -19.4294,8.719 0.7461,8.343 -1.2461,12.328 -6.1016,12.699 -4.9843,0.375 -49.5703,3.988 -49.6914,10.336 0,6.351 -10.7109,15.941 -6.3554,11.957 4.3593,-3.985 -4.6055,5.976 0.625,4.355 5.2304,-1.617 -1.3711,14.696 -1.3711,14.696"
         style="fill:#fbcd9a;fill-opacity:1;fill-rule:nonzero;stroke:none"
         id="path13831" /><path
         d="m 27.7813,806.645 c 0,0 17.4375,6.476 24.7851,1.992 7.3477,-4.606 32.2539,-9.586 36.3633,-9.215 3.9844,0.5 12.3323,-9.465 12.0823,-14.32 -1.1214,-23.411 24.16,-28.891 25.156,-7.598 0.871,17.062 -2.738,17.809 1.871,21.918 4.606,4.234 26.402,17.933 37.984,17.183 11.582,-0.746 14.946,2.243 18.68,5.606 3.738,3.488 8.094,-13.449 -0.496,-25.777 -3.488,-4.981 -11.086,-13.946 -19.18,-18.93 -11.957,-7.344 -24.535,-10.207 -25.906,-12.824 -2.117,-4.485 -4.359,-17.309 -13.324,-16.688 -8.844,0.75 -11.832,8.969 -11.832,8.969 0,0 1.992,-7.598 -6.102,-10.215 -8.0974,-2.738 -19.0544,-0.246 -18.3083,7.723 0.7461,8.094 -1.8672,12.328 -6.6016,12.703 -4.8554,0.371 -48.1992,3.859 -48.3203,9.961 -0.125,5.976 -10.4609,15.191 -6.2305,11.332 4.2383,-3.735 -4.4804,5.726 0.625,4.234 5.1055,-1.621 -1.246,13.946 -1.246,13.946"
         style="fill:#fde4c1;fill-opacity:1;fill-rule:nonzero;stroke:none"
         id="path13833" /><path
         d="m 29.8984,805.648 c 0,0 16.9375,6.102 24.1602,1.743 7.0977,-4.356 31.3867,-8.965 35.2461,-8.59 3.9844,0.371 12.0823,-9.09 11.8323,-13.824 -1.121,-22.289 23.539,-27.52 24.41,-7.223 0.871,16.316 -2.617,17.062 1.867,21.047 4.484,3.984 25.656,16.933 36.863,16.187 11.336,-0.621 14.575,2.242 18.184,5.481 3.613,3.238 7.973,-12.828 -0.371,-24.656 -3.488,-4.735 -10.836,-13.2 -18.809,-18.059 -11.582,-6.973 -24.16,-9.836 -25.406,-12.328 -2.242,-4.235 -6.352,-16.684 -13.324,-15.938 -6.852,0.746 -10.836,8.715 -10.836,8.715 0,0 1.992,-7.223 -5.852,-9.836 -7.847,-2.492 -17.9372,-0.746 -17.1872,6.973 0.7461,7.598 -2.4922,12.203 -7.0977,12.578 -4.6093,0.375 -46.8281,3.609 -46.9531,9.465 -0.125,5.851 -10.2148,14.445 -6.1055,10.832 4.1133,-3.61 -4.3554,5.48 0.625,3.984 4.9805,-1.367 -1.2461,13.449 -1.2461,13.449"
         style="fill:#fffef0;fill-opacity:1;fill-rule:nonzero;stroke:none"
         id="path13835" /><path
         d="m 43.9727,821.961 c 0,0 16.0664,-0.871 19.0546,2.617 2.9883,3.485 13.8243,7.844 18.1836,6.473 4.3555,-1.242 16.4375,-3.86 16.4375,-10.336 0,-6.473 0,-22.91 1.7461,-26.399 1.7425,-3.484 -8.5937,-16.687 -10.5859,-18.054 -1.9961,-1.496 5.1055,10.707 5.8516,17.183 0.7461,6.477 -1.7461,12.578 -5.6055,12.95 -3.9844,0.5 -20.7969,2.242 -23.4141,8.718 -2.6133,6.477 -21.6679,6.848 -21.6679,6.848"
         style="fill:#634d39;fill-opacity:1;fill-rule:nonzero;stroke:none"
         id="path13837" /><path
         d="m 43.9727,821.961 c 0,0 16.0664,-0.871 19.0546,2.617 2.9883,3.485 13.8243,7.844 18.1836,6.473 4.3555,-1.242 16.4375,-3.86 16.4375,-10.336 0,-6.473 0,-22.91 1.7461,-26.399 1.7425,-3.484 -8.5937,-16.687 -10.5859,-18.054 -1.9961,-1.496 5.1055,10.707 5.8516,17.183 0.7461,6.477 -1.7461,12.578 -5.6055,12.95 -3.9844,0.5 -20.7969,2.242 -23.4141,8.718 -2.6133,6.477 -21.6679,6.848 -21.6679,6.848 z"
         style="fill:none;stroke:#231f20;stroke-opacity:1;stroke-width:0.9;stroke-linecap:butt;stroke-linejoin:miter;stroke-miterlimit:4;stroke-dasharray:none"
         id="path13839" /><path
         d="m 173.621,831.801 c 0,0 -16.941,-0.25 -20.551,2.738 -3.488,2.863 -13.574,2.488 -17.562,0.621 -4.11,-1.992 -13.574,-12.949 -13.449,-23.16 0.125,-10.336 1.371,-14.32 3.613,-17.684 2.242,-3.359 10.586,-12.203 13.824,-14.941 3.238,-2.742 -4.734,9.961 -9.715,16.684 -5.105,6.851 -1.992,12.453 1.742,13.449 3.739,1.121 14.571,2.742 20.426,13.078 0.746,9.836 21.672,9.215 21.672,9.215"
         style="fill:#634d39;fill-opacity:1;fill-rule:nonzero;stroke:none"
         id="path13841" /><path
         d="m 173.621,831.801 c 0,0 -16.941,-0.25 -20.551,2.738 -3.488,2.863 -13.574,2.488 -17.562,0.621 -4.11,-1.992 -13.574,-12.949 -13.449,-23.16 0.125,-10.336 1.371,-14.32 3.613,-17.684 2.242,-3.359 10.586,-12.203 13.824,-14.941 3.238,-2.742 -4.734,9.961 -9.715,16.684 -5.105,6.851 -1.992,12.453 1.742,13.449 3.739,1.121 14.571,2.742 20.426,13.078 0.746,9.836 21.672,9.215 21.672,9.215 z"
         style="fill:none;stroke:#231f20;stroke-opacity:1;stroke-width:0.9;stroke-linecap:butt;stroke-linejoin:miter;stroke-miterlimit:4;stroke-dasharray:none"
         id="path13843" /><path
         d="m 145.223,864.051 c 0,0 36.367,24.16 41.597,36.363 5.106,12.078 27.649,-26.027 12.082,-51.93 -15.57,-26.023 -53.679,15.567 -53.679,15.567"
         style="fill:#4d494a;fill-opacity:1;fill-rule:nonzero;stroke:none"
         id="path13845" /><path
         d="m 145.223,864.051 c 0,0 36.367,24.16 41.597,36.363 5.106,12.078 27.649,-26.027 12.082,-51.93 -15.57,-26.023 -53.679,15.567 -53.679,15.567 z"
         style="fill:none;stroke:#231f20;stroke-opacity:1;stroke-width:0.9;stroke-linecap:butt;stroke-linejoin:miter;stroke-miterlimit:4;stroke-dasharray:none"
         id="path13847" /><path
         d="m 149.957,859.816 c 0,0 29.766,19.801 34,29.762 4.234,9.965 22.789,-21.293 9.961,-42.586 -12.824,-21.293 -43.961,12.824 -43.961,12.824"
         style="fill:#fffef0;fill-opacity:1;fill-rule:nonzero;stroke:none"
         id="path13849" /><path
         d="m 149.957,859.816 c 0,0 29.766,19.801 34,29.762 4.234,9.965 22.789,-21.293 9.961,-42.586 -12.824,-21.293 -43.961,12.824 -43.961,12.824 z"
         style="fill:none;stroke:#231f20;stroke-opacity:1;stroke-width:0.9;stroke-linecap:butt;stroke-linejoin:miter;stroke-miterlimit:4;stroke-dasharray:none"
         id="path13851" /><path
         d="m 65.6406,857.078 c 0,2.367 -31.0078,3.61 -45.082,26.027 -14.07422,22.29 -23.66407,-6.851 -13.82422,-32.875 9.83982,-26.152 8.71872,-37.609 34.62112,-29.515 0,0 24.2851,32.504 24.2851,36.363"
         style="fill:#4d494a;fill-opacity:1;fill-rule:nonzero;stroke:none"
         id="path13853" /><path
         d="m 65.6406,857.078 c 0,2.367 -31.0078,3.61 -45.082,26.027 -14.07422,22.29 -23.66407,-6.851 -13.82422,-32.875 9.83982,-26.152 8.71872,-37.609 34.62112,-29.515 0,0 24.2851,32.504 24.2851,36.363 z"
         style="fill:none;stroke:#231f20;stroke-opacity:1;stroke-width:0.9;stroke-linecap:butt;stroke-linejoin:miter;stroke-miterlimit:4;stroke-dasharray:none"
         id="path13855" /><path
         d="m 60.0391,851.473 c 0,1.867 -25.4063,2.992 -36.9922,21.297 -11.4571,18.429 -19.42581,-5.481 -11.3321,-26.899 8.0977,-21.418 7.1016,-30.758 28.3946,-24.156 0,0 19.9297,26.644 19.9297,29.758"
         style="fill:#fffef0;fill-opacity:1;fill-rule:nonzero;stroke:none"
         id="path13857" /><path
         d="m 60.0391,851.473 c 0,1.867 -25.4063,2.992 -36.9922,21.297 -11.4571,18.429 -19.42581,-5.481 -11.3321,-26.899 8.0977,-21.418 7.1016,-30.758 28.3946,-24.156 0,0 19.9297,26.644 19.9297,29.758 z"
         style="fill:none;stroke:#231f20;stroke-opacity:1;stroke-width:0.9;stroke-linecap:butt;stroke-linejoin:miter;stroke-miterlimit:4;stroke-dasharray:none"
         id="path13859" /><path
         d="m 64.7695,824.203 c 0,0 13.8243,9.59 24.1602,-1.742 10.4648,-11.207 6.9766,-19.926 6.9766,-19.926 0,0 -2.6172,7.848 -12.0821,6.973 -9.5898,-0.871 -19.0547,14.695 -19.0547,14.695"
         style="fill:#f2f2f2;fill-opacity:1;fill-rule:nonzero;stroke:none"
         id="path13861" /><path
         d="m 64.7695,824.203 c 0,0 13.8243,9.59 24.1602,-1.742 10.4648,-11.207 6.9766,-19.926 6.9766,-19.926 0,0 -2.6172,7.848 -12.0821,6.973 -9.5898,-0.871 -19.0547,14.695 -19.0547,14.695 z"
         style="fill:none;stroke:#231f20;stroke-opacity:1;stroke-width:3;stroke-linecap:butt;stroke-linejoin:miter;stroke-miterlimit:4;stroke-dasharray:none"
         id="path13863" /><path
         d="m 124.426,800.793 c 0,0 -2.617,20.797 6.972,26.898 9.465,6.102 21.672,6.973 21.672,6.973 0,0 -6.101,-0.871 -6.976,-12.203 -0.871,-11.207 -10.336,-10.336 -15.567,-10.336 -5.23,0 -6.101,-12.078 -6.101,-11.332"
         style="fill:#f2f2f2;fill-opacity:1;fill-rule:nonzero;stroke:none"
         id="path13865" /><path
         d="m 124.426,800.793 c 0,0 -2.617,20.797 6.972,26.898 9.465,6.102 21.672,6.973 21.672,6.973 0,0 -6.101,-0.871 -6.976,-12.203 -0.871,-11.207 -10.336,-10.336 -15.567,-10.336 -5.23,0 -6.101,-12.078 -6.101,-11.332 z"
         style="fill:none;stroke:#231f20;stroke-opacity:1;stroke-width:3;stroke-linecap:butt;stroke-linejoin:miter;stroke-miterlimit:4;stroke-dasharray:none"
         id="path13867" /><path
         d="m 71.2461,826.82 c -0.6211,-0.625 -4.4844,-11.832 6.1016,-15.195 10.4609,-3.359 12.082,2.988 12.082,6.977 2.6172,5.601 -14.4453,11.828 -18.1836,8.218"
         style="fill:#c6bc00;fill-opacity:1;fill-rule:nonzero;stroke:none"
         id="path13869" /><path
         d="m 71.2461,826.82 c -0.6211,-0.625 -4.4844,-11.832 6.1016,-15.195 10.4609,-3.359 12.082,2.988 12.082,6.977 2.6172,5.601 -14.4453,11.828 -18.1836,8.218 z"
         style="fill:none;stroke:#231f20;stroke-opacity:1;stroke-width:3;stroke-linecap:butt;stroke-linejoin:miter;stroke-miterlimit:4;stroke-dasharray:none"
         id="path13871" /><path
         d="m 127.914,822.832 c 0,0 0.496,-7.719 7.348,-8.59 6.972,-0.871 9.961,5.977 9.961,12.949 0.871,9.965 -15.817,0.375 -17.309,-4.359"
         style="fill:#c6bc00;fill-opacity:1;fill-rule:nonzero;stroke:none"
         id="path13873" /><path
         d="m 127.914,822.832 c 0,0 0.496,-7.719 7.348,-8.59 6.972,-0.871 9.961,5.977 9.961,12.949 0.871,9.965 -15.817,0.375 -17.309,-4.359 z"
         style="fill:none;stroke:#231f20;stroke-opacity:1;stroke-width:3;stroke-linecap:butt;stroke-linejoin:miter;stroke-miterlimit:4;stroke-dasharray:none"
         id="path13875" /><path
         d="m 79.0938,825.945 c 2.3632,0 4.2343,-2.488 4.2343,-5.476 0,-2.989 -1.8711,-5.356 -4.2343,-5.356 -2.4922,0 -4.3594,2.367 -4.3594,5.356 0,2.988 1.8672,5.476 4.3594,5.476"
         style="fill:#231f20;fill-opacity:1;fill-rule:nonzero;stroke:none"
         id="path13877" /><path
         d="m 79.0938,825.945 c 2.3632,0 4.2343,-2.488 4.2343,-5.476 0,-2.989 -1.8711,-5.356 -4.2343,-5.356 -2.4922,0 -4.3594,2.367 -4.3594,5.356 0,2.988 1.8672,5.476 4.3594,5.476 z"
         style="fill:none;stroke:#231f20;stroke-opacity:1;stroke-width:0.9;stroke-linecap:butt;stroke-linejoin:miter;stroke-miterlimit:4;stroke-dasharray:none"
         id="path13879" /><path
         d="m 136.383,829.809 c 2.488,0 4.48,-2.493 4.48,-5.481 0,-2.988 -1.992,-5.48 -4.48,-5.48 -2.492,0 -4.61,2.492 -4.61,5.48 0,2.988 2.118,5.481 4.61,5.481"
         style="fill:#231f20;fill-opacity:1;fill-rule:nonzero;stroke:none"
         id="path13881" /><path
         d="m 136.383,829.809 c 2.488,0 4.48,-2.493 4.48,-5.481 0,-2.988 -1.992,-5.48 -4.48,-5.48 -2.492,0 -4.61,2.492 -4.61,5.48 0,2.988 2.118,5.481 4.61,5.481 z"
         style="fill:none;stroke:#231f20;stroke-opacity:1;stroke-width:0.9;stroke-linecap:butt;stroke-linejoin:miter;stroke-miterlimit:4;stroke-dasharray:none"
         id="path13883" /><path
         d="m 77.3477,826.82 c 0.8711,0 1.7461,-1.871 1.7461,-4.113 0,-2.363 -0.875,-4.105 -1.7461,-4.105 -0.9961,0 -1.7422,1.742 -1.7422,4.105 0,2.242 0.7461,4.113 1.7422,4.113"
         style="fill:#ffffff;fill-opacity:1;fill-rule:nonzero;stroke:none"
         id="path13885" /><path
         d="m 77.3477,826.82 c 0.8711,0 1.7461,-1.871 1.7461,-4.113 0,-2.363 -0.875,-4.105 -1.7461,-4.105 -0.9961,0 -1.7422,1.742 -1.7422,4.105 0,2.242 0.7461,4.113 1.7422,4.113 z"
         style="fill:none;stroke:#231f20;stroke-opacity:1;stroke-width:0.9;stroke-linecap:butt;stroke-linejoin:miter;stroke-miterlimit:4;stroke-dasharray:none"
         id="path13887" /><path
         d="m 134.266,828.438 c 0.996,0 1.867,-1.868 1.867,-4.235 0,-2.367 -0.871,-4.359 -1.867,-4.359 -1.121,0 -1.996,1.992 -1.996,4.359 0,2.367 0.875,4.235 1.996,4.235"
         style="fill:#ffffff;fill-opacity:1;fill-rule:nonzero;stroke:none"
         id="path13889" /><path
         d="m 134.266,828.438 c 0.996,0 1.867,-1.868 1.867,-4.235 0,-2.367 -0.871,-4.359 -1.867,-4.359 -1.121,0 -1.996,1.992 -1.996,4.359 0,2.367 0.875,4.235 1.996,4.235 z"
         style="fill:none;stroke:#231f20;stroke-opacity:1;stroke-width:0.9;stroke-linecap:butt;stroke-linejoin:miter;stroke-miterlimit:4;stroke-dasharray:none"
         id="path13891" /><path
         d="m 104,772.027 c 0,0 17.188,6.848 28.645,1.993 11.582,-4.981 -5.106,-9.09 -5.106,-9.09 0,0 -6.726,-4.235 -6.101,-9.465 0.621,-5.356 -4.985,-5.231 -5.981,1.742 -0.996,7.102 -11.582,1.496 -13.945,6.852 -2.3675,5.351 2.988,7.968 2.488,7.968"
         style="fill:#231f20;fill-opacity:1;fill-rule:nonzero;stroke:none"
         id="path13893" /><path
         d="m 104,772.027 c 0,0 17.188,6.848 28.645,1.993 11.582,-4.981 -5.106,-9.09 -5.106,-9.09 0,0 -6.726,-4.235 -6.101,-9.465 0.621,-5.356 -4.985,-5.231 -5.981,1.742 -0.996,7.102 -11.582,1.496 -13.945,6.852 -2.3675,5.351 2.988,7.968 2.488,7.968 z"
         style="fill:none;stroke:#231f20;stroke-opacity:1;stroke-width:0.9;stroke-linecap:butt;stroke-linejoin:miter;stroke-miterlimit:4;stroke-dasharray:none"
         id="path13895" /><path
         d="m 108.234,770.16 c 0,0 10.836,4.235 18.059,1.242 7.223,-3.109 -3.238,-5.726 -3.238,-5.726 0,0 -4.235,-2.738 -3.86,-5.977 0.375,-3.363 -3.113,-3.363 -3.738,1.121 -0.621,4.481 -7.348,0.871 -8.84,4.36 -1.496,3.359 1.867,4.98 1.617,4.98"
         style="fill:#4e4d5b;fill-opacity:1;fill-rule:nonzero;stroke:none"
         id="path13897" /><path
         d="m 112.469,768.293 c 0,0 4.484,1.742 7.472,0.496 2.989,-1.246 -1.371,-2.367 -1.371,-2.367 0,0 -1.742,-1.121 -1.617,-2.488 0.25,-1.371 -1.246,-1.371 -1.496,0.496 -0.246,1.867 -3.113,0.375 -3.609,1.746 -0.625,1.492 0.746,2.117 0.621,2.117"
         style="fill:#5d638c;fill-opacity:1;fill-rule:nonzero;stroke:none"
         id="path13899" /><path
         d="m 67.3867,830.68 c -1.4961,4.355 16.4375,14.32 21.668,9.465 5.1055,-4.735 9.4648,-8.219 6.8516,-9.965 -2.6172,-1.742 -7.7227,2.242 -12.0821,2.617 -4.3594,0.496 -16.3125,-2.742 -16.4375,-2.117"
         style="fill:#fef1d9;fill-opacity:1;fill-rule:nonzero;stroke:none"
         id="path13901" /><path
         d="m 67.3867,830.68 c -1.4961,4.355 16.4375,14.32 21.668,9.465 5.1055,-4.735 9.4648,-8.219 6.8516,-9.965 -2.6172,-1.742 -7.7227,2.242 -12.0821,2.617 -4.3594,0.496 -16.3125,-2.742 -16.4375,-2.117 z"
         style="fill:none;stroke:#231f20;stroke-opacity:1;stroke-width:0.9;stroke-linecap:butt;stroke-linejoin:miter;stroke-miterlimit:4;stroke-dasharray:none"
         id="path13903" /><path
         d="m 117.574,833.293 c 0,0 1.746,12.453 6.852,10.836 5.23,-1.746 14.82,0.371 14.82,0.371 0,0 5.977,-1.742 2.492,-4.355 -3.363,-2.618 -13.328,-2.118 -15.57,-5.981 -2.117,-3.984 -8.594,-0.871 -8.594,-0.871"
         style="fill:#fef1d9;fill-opacity:1;fill-rule:nonzero;stroke:none"
         id="path13905" /><path
         d="m 117.574,833.293 c 0,0 1.746,12.453 6.852,10.836 5.23,-1.746 14.82,0.371 14.82,0.371 0,0 5.977,-1.742 2.492,-4.355 -3.363,-2.618 -13.328,-2.118 -15.57,-5.981 -2.117,-3.984 -8.594,-0.871 -8.594,-0.871 z"
         style="fill:none;stroke:#231f20;stroke-opacity:1;stroke-width:0.9;stroke-linecap:butt;stroke-linejoin:miter;stroke-miterlimit:4;stroke-dasharray:none"
         id="path13907" /><path
         d="m 84.5703,769.66 c 0,0 4.7344,-4.109 2.4922,-9.586 -2.2422,-5.355 -1.8672,-18.308 17.4375,-18.929 5.48,-0.125 10.586,10.585 10.586,10.335 0,-0.125 4.359,-6.726 12.703,-7.597 14.195,-1.367 18.555,12.828 14.445,24.035 -1.867,4.98 -8.718,10.461 -2.117,9.586 6.602,-0.871 3.738,-0.371 2.742,-3.734 -1,-3.36 -2.492,-12.079 -1.496,-19.676 0.496,-3.485 -1.246,-7.719 -5.355,-10.457 -4.61,-2.992 -11.957,-4.36 -15.817,-0.125 -6.976,7.843 -8.343,-0.75 -11.832,-2.492 -11.5817,-5.727 -17.6832,-1.368 -20.9215,5.851 -4.1094,8.969 -4.1094,21.918 -7.8477,21.047 -4.4804,-0.996 3.7383,9.961 4.1094,7.098 0,0 0.9961,-4.981 0.8711,-5.356"
         style="fill:#231f20;fill-opacity:1;fill-rule:nonzero;stroke:none"
         id="path13909" /><path
         d="m 84.5703,769.66 c 0,0 4.7344,-4.109 2.4922,-9.586 -2.2422,-5.355 -1.8672,-18.308 17.4375,-18.929 5.48,-0.125 10.586,10.585 10.586,10.335 0,-0.125 4.359,-6.726 12.703,-7.597 14.195,-1.367 18.555,12.828 14.445,24.035 -1.867,4.98 -8.718,10.461 -2.117,9.586 6.602,-0.871 3.738,-0.371 2.742,-3.734 -1,-3.36 -2.492,-12.079 -1.496,-19.676 0.496,-3.485 -1.246,-7.719 -5.355,-10.457 -4.61,-2.992 -11.957,-4.36 -15.817,-0.125 -6.976,7.843 -8.343,-0.75 -11.832,-2.492 -11.5817,-5.727 -17.6832,-1.368 -20.9215,5.851 -4.1094,8.969 -4.1094,21.918 -7.8477,21.047 -4.4804,-0.996 3.7383,9.961 4.1094,7.098 0,0 0.9961,-4.981 0.8711,-5.356 z"
         style="fill:none;stroke:#231f20;stroke-opacity:1;stroke-width:0.9;stroke-linecap:butt;stroke-linejoin:miter;stroke-miterlimit:4;stroke-dasharray:none"
         id="path13911" /><path
         d="m 118.945,772.027 c 3.364,0.25 5.977,-0.5 5.977,-1.496 0,-1.121 -2.613,-2.117 -5.977,-2.363 -3.363,-0.25 -5.976,0.496 -5.976,1.492 0,1.121 2.613,2.117 5.976,2.367"
         style="fill:#ffffff;fill-opacity:1;fill-rule:nonzero;stroke:none"
         id="path13913" /><path
         d="m 118.945,772.027 c 3.364,0.25 5.977,-0.5 5.977,-1.496 0,-1.121 -2.613,-2.117 -5.977,-2.363 -3.363,-0.25 -5.976,0.496 -5.976,1.492 0,1.121 2.613,2.117 5.976,2.367 z"
         style="fill:none;stroke:#231f20;stroke-opacity:1;stroke-width:0.9;stroke-linecap:butt;stroke-linejoin:miter;stroke-miterlimit:4;stroke-dasharray:none"
         id="path13915" /><path
         d="m 532.422,739.402 c 0,0 164.269,9.961 209.105,-61.39 44.711,-71.356 127.657,-195.758 160.907,-210.574 33.129,-14.821 34.75,-79.571 -89.668,-54.668 -124.293,24.906 -208.981,102.734 -205.618,180.687 3.239,77.953 -18.308,101.117 -44.835,109.457 -26.528,8.344 -29.891,39.848 -29.891,36.488"
         style="fill:#feeec7;fill-opacity:1;fill-rule:nonzero;stroke:none"
         id="path13917" /><path
         d="m 532.422,739.402 c 0,0 164.269,9.961 209.105,-61.39 44.711,-71.356 127.657,-195.758 160.907,-210.574 33.129,-14.821 34.75,-79.571 -89.668,-54.668 -124.293,24.906 -208.981,102.734 -205.618,180.687 3.239,77.953 -18.308,101.117 -44.835,109.457 -26.528,8.344 -29.891,39.848 -29.891,36.488 z"
         style="fill:none;stroke:#231f20;stroke-opacity:1;stroke-width:1.8;stroke-linecap:butt;stroke-linejoin:miter;stroke-miterlimit:4;stroke-dasharray:none"
         id="path13919" /><path
         d="m 531.301,740.023 c 0,0 164.394,6.973 207.113,-61.39 42.844,-68.363 120.68,-190.028 152.563,-204.473 32.007,-14.32 34.5,-73.719 -85.434,-49.187 -119.934,24.656 -199.02,101.613 -195.281,175.957 3.734,74.465 -24.785,96.008 -50.317,104.101 -25.656,8.094 -28.644,38.231 -28.644,34.992"
         style="fill:#fddea8;fill-opacity:1;fill-rule:nonzero;stroke:none"
         id="path13921" /><path
         d="m 530.059,740.645 c 0,0 164.515,4.109 205.242,-61.391 40.847,-65.375 113.582,-184.297 144.344,-198.242 30.636,-14.074 34.125,-67.992 -81.325,-43.711 -115.574,24.285 -189.054,100.367 -184.945,171.222 4.109,70.731 -31.383,90.782 -55.918,98.625 -24.66,7.848 -27.277,36.61 -27.398,33.497"
         style="fill:#fccf88;fill-opacity:1;fill-rule:nonzero;stroke:none"
         id="path13923" /><path
         d="m 528.938,741.395 c 0,0 164.64,0.996 203.375,-61.391 38.73,-62.512 106.359,-178.695 135.875,-192.27 29.515,-13.574 33.875,-62.136 -77.219,-38.226 -111.09,23.906 -179.09,99.246 -174.481,166.488 4.485,67.242 -37.859,85.551 -61.523,93.27 -23.664,7.722 -26.027,34.992 -26.027,32.129"
         style="fill:#fabe6d;fill-opacity:1;fill-rule:nonzero;stroke:none"
         id="path13925" /><path
         d="m 527.691,742.016 c 0,0 164.766,-1.868 201.508,-61.391 36.739,-59.523 99.383,-172.965 127.531,-186.043 28.27,-13.074 33.75,-56.41 -72.984,-32.75 -106.73,23.535 -169.125,98.004 -164.144,161.637 4.859,63.754 -44.336,80.441 -67.129,87.914 -22.664,7.472 -24.657,33.371 -24.782,30.633"
         style="fill:#f9b054;fill-opacity:1;fill-rule:nonzero;stroke:none"
         id="path13927" /><path
         d="m 526.57,742.641 c 0,0 164.77,-4.86 199.516,-61.395 34.746,-56.531 92.285,-167.238 119.309,-179.937 27.027,-12.579 33.378,-50.684 -68.997,-27.395 -102.246,23.285 -159.039,97.004 -153.808,157.149 5.355,60.023 -50.813,75.089 -72.481,82.437 -21.796,7.348 -23.414,31.754 -23.539,29.141"
         style="fill:#f8a23b;fill-opacity:1;fill-rule:nonzero;stroke:none"
         id="path13929" /><path
         d="m 525.324,743.387 c 0,0 165.016,-7.848 197.774,-61.516 32.754,-53.672 85.058,-161.512 110.84,-173.715 25.781,-12.203 33.128,-44.953 -64.762,-22.039 -97.891,23.035 -149.199,95.883 -143.473,152.418 5.856,56.535 -57.289,69.985 -78.086,77.082 -20.801,7.098 -22.168,30.137 -22.293,27.77"
         style="fill:#f79326;fill-opacity:1;fill-rule:nonzero;stroke:none"
         id="path13931" /><path
         d="m 524.203,744.008 c 0,0 165.016,-10.832 195.777,-61.516 30.766,-50.679 78.09,-155.781 102.625,-167.488 24.532,-11.828 32.754,-39.348 -60.777,-16.559 -93.406,22.664 -139.113,94.637 -133.012,147.563 6.231,53.047 -63.886,64.879 -83.691,71.726 -19.801,6.848 -20.797,28.516 -20.922,26.274"
         style="fill:#f68712;fill-opacity:1;fill-rule:nonzero;stroke:none"
         id="path13933" /><path
         d="m 403.273,643.145 c 0,0 29.766,-86.172 64.512,-99.497 34.871,-13.199 68,-16.562 71.363,-31.507 3.239,-14.942 -11.582,-54.539 -14.945,-72.848 -3.363,-18.18 -36.488,-14.941 -38.109,-31.504 -1.742,-16.562 -11.707,-28.141 16.562,-28.141 28.149,0 38.86,-1.871 40.602,14.817 1.621,16.562 -1.371,9.836 11.832,16.562 13.324,6.598 12.203,79.571 22.168,101.114 9.965,21.543 -53.055,44.832 -41.473,59.773 11.582,14.945 31.508,72.973 28.27,104.477 -8.965,72.972 -171.864,19.925 -160.782,-33.246"
         style="fill:#f68712;fill-opacity:1;fill-rule:nonzero;stroke:none"
         id="path13935" /><path
         d="m 542.387,518.742 c 0,0 31.508,13.324 31.508,-4.859 0,-18.301 -13.2,-86.168 -21.547,-94.512 -8.219,-8.219 -23.164,-21.543 -34.746,-18.18 -11.707,3.235 -24.907,-6.601 -23.289,6.598 1.621,13.324 6.601,9.961 23.289,16.563 16.566,6.722 24.785,94.39 24.785,94.39"
         style="fill:#3d3a3b;fill-opacity:1;fill-rule:nonzero;stroke:none"
         id="path13937" /><path
         d="m 542.387,518.742 c 0,0 31.508,13.324 31.508,-4.859 0,-18.301 -13.2,-86.168 -21.547,-94.512 -8.219,-8.219 -23.164,-21.543 -34.746,-18.18 -11.707,3.235 -24.907,-6.601 -23.289,6.598 1.621,13.324 6.601,9.961 23.289,16.563 16.566,6.722 24.785,94.39 24.785,94.39 z"
         style="fill:none;stroke:#231f20;stroke-opacity:1;stroke-width:0.9;stroke-linecap:butt;stroke-linejoin:miter;stroke-miterlimit:4;stroke-dasharray:none"
         id="path13939" /><path
         d="m 471.148,520.484 c 0,0 28.149,11.582 28.149,-1.742 0,-13.199 -13.203,-66.125 -18.184,-76.086 -4.984,-9.961 -21.672,-21.543 -21.672,-21.543 0,0 -24.66,-9.961 -29.64,0 -4.981,9.961 -8.344,12.578 9.965,19.301 18.058,6.602 33,83.309 31.382,80.07"
         style="fill:#3d3a3b;fill-opacity:1;fill-rule:nonzero;stroke:none"
         id="path13941" /><path
         d="m 471.148,520.484 c 0,0 28.149,11.582 28.149,-1.742 0,-13.199 -13.203,-66.125 -18.184,-76.086 -4.984,-9.961 -21.672,-21.543 -21.672,-21.543 0,0 -24.66,-9.961 -29.64,0 -4.981,9.961 -8.344,12.578 9.965,19.301 18.058,6.602 33,83.309 31.382,80.07 z"
         style="fill:none;stroke:#231f20;stroke-opacity:1;stroke-width:0.9;stroke-linecap:butt;stroke-linejoin:miter;stroke-miterlimit:4;stroke-dasharray:none"
         id="path13943" /><path
         d="m 197.531,583.496 c 0,0 1.621,-69.613 -1.621,-86.297 -3.359,-16.562 -23.289,-94.39 -33.25,-100.992 -9.965,-6.598 -19.926,0 -21.547,-14.941 -1.617,-14.946 3.364,-21.543 3.364,-21.543 0,0 31.507,-9.961 43.089,-1.743 11.586,8.34 13.329,16.684 11.586,29.887 -1.621,13.324 9.961,53.047 19.926,66.371 9.961,13.2 46.453,46.325 53.055,87.789 6.722,41.469 6.722,61.391 6.722,79.571 1.868,35.742 -77.214,-20.668 -81.324,-38.102"
         style="fill:#f68712;fill-opacity:1;fill-rule:nonzero;stroke:none"
         id="path13945" /><path
         d="m 204.133,498.941 c 0,0 -26.528,-82.808 -31.512,-94.515 -4.98,-11.578 -29.887,-9.836 -16.562,-21.543 13.328,-11.578 29.89,-4.981 29.89,-4.981 0,0 8.219,1.746 8.219,21.543 0,19.926 19.926,56.41 36.492,74.594 16.688,18.18 18.305,39.844 18.305,39.844 0,0 -19.926,-21.664 -29.887,-18.301 -9.965,3.359 -9.965,6.598 -14.945,3.359"
         style="fill:#3d3a3b;fill-opacity:1;fill-rule:nonzero;stroke:none"
         id="path13947" /><path
         d="m 204.133,498.941 c 0,0 -26.528,-82.808 -31.512,-94.515 -4.98,-11.578 -29.887,-9.836 -16.562,-21.543 13.328,-11.578 29.89,-4.981 29.89,-4.981 0,0 8.219,1.746 8.219,21.543 0,19.926 19.926,56.41 36.492,74.594 16.688,18.18 18.305,39.844 18.305,39.844 0,0 -19.926,-21.664 -29.887,-18.301 -9.965,3.359 -9.965,6.598 -14.945,3.359 z"
         style="fill:none;stroke:#231f20;stroke-opacity:1;stroke-width:0.9;stroke-linecap:butt;stroke-linejoin:miter;stroke-miterlimit:4;stroke-dasharray:none"
         id="path13949" /><path
         d="m 117.949,518.742 c 0,0 19.801,-9.836 34.746,-3.238 14.946,6.601 -9.961,-31.504 -9.961,-61.266 0,-29.886 8.344,-51.429 4.981,-59.648 -3.238,-8.344 -29.766,-8.344 -38.11,0 -8.343,8.219 -4.98,8.219 9.965,19.801 14.942,11.703 -1.621,104.351 -1.621,104.351"
         style="fill:#3d3a3b;fill-opacity:1;fill-rule:nonzero;stroke:none"
         id="path13951" /><path
         d="m 117.949,518.742 c 0,0 19.801,-9.836 34.746,-3.238 14.946,6.601 -9.961,-31.504 -9.961,-61.266 0,-29.886 8.344,-51.429 4.981,-59.648 -3.238,-8.344 -29.766,-8.344 -38.11,0 -8.343,8.219 -4.98,8.219 9.965,19.801 14.942,11.703 -1.621,104.351 -1.621,104.351 z"
         style="fill:none;stroke:#231f20;stroke-opacity:1;stroke-width:0.9;stroke-linecap:butt;stroke-linejoin:miter;stroke-miterlimit:4;stroke-dasharray:none"
         id="path13953" /><path
         d="m 406.512,689.59 c 0,0 26.527,-34.742 24.906,-51.43 -1.617,-16.562 36.367,-66.246 59.531,-71.226 23.293,-4.981 33.254,26.523 29.891,54.664 -3.238,28.269 -6.598,41.468 -1.617,63.011 4.98,21.668 -18.309,61.391 -33.129,59.774 -14.946,-1.621 -81.199,-3.363 -97.766,-14.942 -16.687,-11.582 -100.629,-12.332 -116.195,-3.363 -15.445,8.965 -52.309,17.68 -56.418,-41.469 -2.742,-41.589 -9.219,-128.011 19.801,-132.246 23.539,-3.488 24.91,95.887 61.523,120.664 41.473,8.344 109.473,16.563 109.473,16.563"
         style="fill:#e16814;fill-opacity:1;fill-rule:nonzero;stroke:none"
         id="path13955" /><path
         d="m 753.109,440.914 c 0,0 15.071,1.367 37.489,-5.23 26.898,-7.848 3.734,19.3 28.269,6.476 26.031,-13.574 11.957,16.188 2.867,21.789 -13.703,8.344 31.879,-10.086 19.176,13.824 -15.191,28.641 29.27,24.907 20.551,17.93 0,0 34.25,-21.664 47.574,-44.828 13.328,-23.16 -23.414,-32.5 -56.539,-32.5 -33.254,0 -99.387,22.539 -99.387,22.539"
         style="fill:#fffef0;fill-opacity:1;fill-rule:nonzero;stroke:none"
         id="path13957" /><path
         d="m 603.285,374.293 c -19.926,-1.121 96.024,176.328 234.016,188.406 37.484,3.239 21.172,-66.871 -11.332,-91.277 -32.508,-24.281 -94.778,-47.942 -115.949,-64.254 -21.172,-16.191 -48.821,-19.551 -60.157,-45.578 -11.457,-26.027 -42.965,12.949 -46.578,12.703"
         style="fill:#231f20;fill-opacity:1;fill-rule:nonzero;stroke:none"
         id="path13959" /><path
         d="m 603.285,374.293 c -19.926,-1.121 96.024,176.328 234.016,188.406 37.484,3.239 21.172,-66.871 -11.332,-91.277 -32.508,-24.281 -94.778,-47.942 -115.949,-64.254 -21.172,-16.191 -48.821,-19.551 -60.157,-45.578 -11.457,-26.027 -42.965,12.949 -46.578,12.703 z"
         style="fill:none;stroke:#231f20;stroke-opacity:1;stroke-width:1.8;stroke-linecap:butt;stroke-linejoin:miter;stroke-miterlimit:4;stroke-dasharray:none"
         id="path13961" /><path
         d="m 368.527,305.055 c 0,0 -44.586,-23.535 -49.32,-37.606 -4.605,-14.07 3.613,-39.847 17.688,-51.679 14.07,-11.704 101.996,-32.75 120.679,-18.676 18.805,14.07 23.539,51.551 9.465,75.086 -14.074,23.41 -98.512,32.875 -98.512,32.875"
         style="fill:#bf5224;fill-opacity:1;fill-rule:nonzero;stroke:none"
         id="path13963" /><path
         d="m 368.527,305.055 c 0,0 -44.586,-23.535 -49.32,-37.606 -4.605,-14.07 3.613,-39.847 17.688,-51.679 14.07,-11.704 101.996,-32.75 120.679,-18.676 18.805,14.07 23.539,51.551 9.465,75.086 -14.074,23.41 -98.512,32.875 -98.512,32.875 z"
         style="fill:none;stroke:#231f20;stroke-opacity:1;stroke-width:3;stroke-linecap:butt;stroke-linejoin:miter;stroke-miterlimit:4;stroke-dasharray:none"
         id="path13965" /><path
         d="m 368.898,301.445 c 0,0 -42.964,-20.922 -47.574,-34.496 -4.484,-13.57 3.489,-38.351 16.938,-49.558 13.574,-11.332 98.14,-31.629 116.074,-18.059 18.059,13.449 21.047,48.316 7.598,70.856 -13.454,22.539 -93.036,31.257 -93.036,31.257"
         style="fill:#d47328;fill-opacity:1;fill-rule:nonzero;stroke:none"
         id="path13967" /><path
         d="m 369.273,297.832 c 0,0 -41.472,-18.43 -45.707,-31.379 -4.359,-13.074 3.239,-36.859 16.192,-47.57 12.953,-10.832 94.152,-30.383 111.34,-17.309 17.187,12.953 18.679,44.953 5.73,66.621 -12.828,21.668 -87.555,29.637 -87.555,29.637"
         style="fill:#e57d1e;fill-opacity:1;fill-rule:nonzero;stroke:none"
         id="path13969" /><path
         d="m 369.648,294.348 c 0,0 -39.855,-16.067 -43.964,-28.395 -4.235,-12.449 3.113,-35.238 15.445,-45.574 12.453,-10.461 90.168,-29.016 106.73,-16.688 16.438,12.454 16.317,41.84 3.985,62.512 -12.328,20.797 -82.196,28.145 -82.196,28.145"
         style="fill:#f68712;fill-opacity:1;fill-rule:nonzero;stroke:none"
         id="path13971" /><path
         d="m 448.359,283.887 c 0,0 58.532,32.875 63.266,21.168 4.609,-11.828 0,-44.578 -25.906,-61.016 -25.778,-16.437 -32.754,39.848 -37.36,39.848"
         style="fill:#231f20;fill-opacity:1;fill-rule:nonzero;stroke:none"
         id="path13973" /><path
         d="m 448.359,283.887 c 0,0 58.532,32.875 63.266,21.168 4.609,-11.828 0,-44.578 -25.906,-61.016 -25.778,-16.437 -32.754,39.848 -37.36,39.848 z"
         style="fill:none;stroke:#231f20;stroke-opacity:1;stroke-width:0.9;stroke-linecap:butt;stroke-linejoin:miter;stroke-miterlimit:4;stroke-dasharray:none"
         id="path13975" /><path
         d="m 451.844,281.273 c 0,0 48.82,25.653 52.433,15.813 3.485,-9.715 -1.121,-36.609 -22.668,-49.563 -21.543,-12.824 -26.027,33.625 -29.765,33.75"
         style="fill:#fffef0;fill-opacity:1;fill-rule:nonzero;stroke:none"
         id="path13977" /><path
         d="m 451.844,281.273 c 0,0 48.82,25.653 52.433,15.813 3.485,-9.715 -1.121,-36.609 -22.668,-49.563 -21.543,-12.824 -26.027,33.625 -29.765,33.75 z"
         style="fill:none;stroke:#231f20;stroke-opacity:1;stroke-width:0.9;stroke-linecap:butt;stroke-linejoin:miter;stroke-miterlimit:4;stroke-dasharray:none"
         id="path13979" /><path
         d="m 368.527,305.055 c 0,0 -24.66,29.265 -30.511,45.703 -5.856,16.437 -30.516,-22.293 -21.051,-59.899 9.344,-37.48 51.562,14.196 51.562,14.196"
         style="fill:#231f20;fill-opacity:1;fill-rule:nonzero;stroke:none"
         id="path13981" /><path
         d="m 368.527,305.055 c 0,0 -24.66,29.265 -30.511,45.703 -5.856,16.437 -30.516,-22.293 -21.051,-59.899 9.344,-37.48 51.562,14.196 51.562,14.196 z"
         style="fill:none;stroke:#231f20;stroke-opacity:1;stroke-width:0.9;stroke-linecap:butt;stroke-linejoin:miter;stroke-miterlimit:4;stroke-dasharray:none"
         id="path13983" /><path
         d="m 362.797,300.695 c 0,0 -20.797,24.782 -25.781,38.606 -4.981,13.945 -25.778,-18.805 -17.809,-50.559 7.848,-31.754 43.59,11.953 43.59,11.953"
         style="fill:#fffef0;fill-opacity:1;fill-rule:nonzero;stroke:none"
         id="path13985" /><path
         d="m 362.797,300.695 c 0,0 -20.797,24.782 -25.781,38.606 -4.981,13.945 -25.778,-18.805 -17.809,-50.559 7.848,-31.754 43.59,11.953 43.59,11.953 z"
         style="fill:none;stroke:#231f20;stroke-opacity:1;stroke-width:0.9;stroke-linecap:butt;stroke-linejoin:miter;stroke-miterlimit:4;stroke-dasharray:none"
         id="path13987" /><path
         d="m 348.352,259.727 c 6.226,-4.856 23.289,-8.094 16.937,-16.438 -4.234,-5.476 -1.992,-26.894 17.309,-14.941 3.738,2.367 7.847,8.468 10.961,8.84 13.203,1.246 49.691,4.234 72.359,-5.602 22.789,-9.715 23.539,-24.406 23.539,-24.406 0,0 -8.469,-15.817 -24.66,-21.918 -15.942,-6.102 -43.59,-7.969 -55.668,-3.114 -11.957,4.981 -21.297,0.747 -29.02,-9.714 -7.722,-10.457 -58.285,6.601 -51.808,23.785 6.351,17.308 0,22.043 -10.215,36.613 -10.086,14.691 -3.484,23.16 0.625,34.242 4.109,10.961 29.641,-7.347 29.641,-7.347"
         style="fill:#fcd562;fill-opacity:1;fill-rule:nonzero;stroke:none"
         id="path13989" /><path
         d="m 348.352,259.727 c 6.226,-4.856 23.289,-8.094 16.937,-16.438 -4.234,-5.476 -1.992,-26.894 17.309,-14.941 3.738,2.367 7.847,8.468 10.961,8.84 13.203,1.246 49.691,4.234 72.359,-5.602 22.789,-9.715 23.539,-24.406 23.539,-24.406 0,0 -8.469,-15.817 -24.66,-21.918 -15.942,-6.102 -43.59,-7.969 -55.668,-3.114 -11.957,4.981 -21.297,0.747 -29.02,-9.714 -7.722,-10.457 -58.285,6.601 -51.808,23.785 6.351,17.308 0,22.043 -10.215,36.613 -10.086,14.691 -3.484,23.16 0.625,34.242 4.109,10.961 29.641,-7.347 29.641,-7.347 z"
         style="fill:none;stroke:#231f20;stroke-opacity:1;stroke-width:8.1;stroke-linecap:butt;stroke-linejoin:miter;stroke-miterlimit:4;stroke-dasharray:none"
         id="path13991" /><path
         d="m 349.098,257.488 c 5.855,-4.609 22.293,-7.722 16.191,-15.691 -4.109,-5.356 -1.867,-25.777 16.563,-14.32 3.613,2.242 7.472,8.093 10.586,8.468 12.578,1.243 47.574,4.11 69.246,-5.355 21.918,-9.34 22.668,-23.41 22.668,-23.41 0,0 -8.223,-15.196 -23.664,-21.047 -15.321,-5.852 -41.848,-7.594 -53.305,-2.863 -11.582,4.73 -20.426,0.621 -27.899,-9.34 -7.468,-9.961 -55.793,6.226 -49.691,22.789 6.227,16.562 0,21.043 -9.715,35.117 -9.711,13.945 -3.359,22.164 0.5,32.75 3.985,10.457 28.52,-7.098 28.52,-7.098"
         style="fill:#fde28f;fill-opacity:1;fill-rule:nonzero;stroke:none"
         id="path13993" /><path
         d="m 349.844,255.371 c 5.605,-4.484 21.297,-7.473 15.445,-15.07 -3.863,-5.106 -1.742,-24.656 15.941,-13.696 3.364,2.243 7.098,7.719 9.961,8.094 12.082,1.246 45.582,3.86 66.383,-5.105 20.922,-8.965 21.547,-22.293 21.547,-22.293 0,0 -7.848,-14.567 -22.543,-20.172 -14.695,-5.602 -40.101,-7.348 -51.062,-2.863 -10.961,4.484 -19.555,0.621 -26.653,-8.84 -7.097,-9.59 -53.429,5.976 -47.449,21.789 5.852,15.816 0,20.051 -9.344,33.5 -9.34,13.449 -3.234,21.293 0.5,31.379 3.739,10.086 27.274,-6.723 27.274,-6.723"
         style="fill:#fef0be;fill-opacity:1;fill-rule:nonzero;stroke:none"
         id="path13995" /><path
         d="m 350.469,253.254 c 5.48,-4.359 20.426,-7.223 14.82,-14.445 -3.738,-4.86 -1.742,-23.536 15.195,-13.079 3.239,2.118 6.848,7.473 9.59,7.723 11.578,1.121 43.461,3.735 63.266,-4.855 19.926,-8.469 20.672,-21.297 20.672,-21.297 0,0 -7.473,-13.946 -21.422,-19.301 -14.07,-5.355 -38.356,-6.848 -48.817,-2.613 -10.589,4.234 -18.683,0.621 -25.531,-8.594 -6.726,-9.09 -50.937,5.73 -45.336,20.922 5.606,15.066 0,19.176 -8.84,32.004 -8.968,12.824 -3.113,20.297 0.497,29.886 3.613,9.586 25.906,-6.351 25.906,-6.351"
         style="fill:#fffef0;fill-opacity:1;fill-rule:nonzero;stroke:none"
         id="path13997" /><path
         d="m 336.895,266.328 c 0,0 14.07,26.899 28.144,17.559 14.074,-9.34 6.977,-25.778 4.734,-33.996 -2.367,-8.219 -32.878,16.437 -32.878,16.437"
         style="fill:#fffef0;fill-opacity:1;fill-rule:nonzero;stroke:none"
         id="path13999" /><path
         d="m 336.895,266.328 c 0,0 14.07,26.899 28.144,17.559 14.074,-9.34 6.977,-25.778 4.734,-33.996 -2.367,-8.219 -32.878,16.437 -32.878,16.437 z"
         style="fill:none;stroke:#231f20;stroke-opacity:1;stroke-width:0.9;stroke-linecap:butt;stroke-linejoin:miter;stroke-miterlimit:4;stroke-dasharray:none"
         id="path14001" /><path
         d="m 392.066,239.305 c 0,0 6.973,28.765 24.532,28.765 17.687,0 12.953,-19.425 12.953,-26.398 0,-7.098 -37.485,0 -37.485,-2.367"
         style="fill:#fffef0;fill-opacity:1;fill-rule:nonzero;stroke:none"
         id="path14003" /><path
         d="m 392.066,239.305 c 0,0 6.973,28.765 24.532,28.765 17.687,0 12.953,-19.425 12.953,-26.398 0,-7.098 -37.485,0 -37.485,-2.367 z"
         style="fill:none;stroke:#231f20;stroke-opacity:1;stroke-width:0.9;stroke-linecap:butt;stroke-linejoin:miter;stroke-miterlimit:4;stroke-dasharray:none"
         id="path14005" /><path
         d="m 357.566,244.41 c 0,0 12.704,0.125 26.403,-9.836 13.824,-9.836 -1.492,-13.199 -10.336,-12.078 -8.844,0.996 -5.731,-9.215 -12.953,-5.48 -7.098,3.734 -6.227,13.324 -6.227,13.324 -17.437,12.453 -11.832,14.82 3.113,14.07"
         style="fill:#231f20;fill-opacity:1;fill-rule:nonzero;stroke:none"
         id="path14007" /><path
         d="m 357.566,244.41 c 0,0 12.704,0.125 26.403,-9.836 13.824,-9.836 -1.492,-13.199 -10.336,-12.078 -8.844,0.996 -5.731,-9.215 -12.953,-5.48 -7.098,3.734 -6.227,13.324 -6.227,13.324 -17.437,12.453 -11.832,14.82 3.113,14.07 z"
         style="fill:none;stroke:#231f20;stroke-opacity:1;stroke-width:0.9;stroke-linecap:butt;stroke-linejoin:miter;stroke-miterlimit:4;stroke-dasharray:none"
         id="path14009" /><path
         d="m 359.559,241.922 c 0,0 7.972,0 16.441,-6.102 8.594,-6.101 -0.996,-8.218 -6.352,-7.597 -5.48,0.746 -3.613,-5.602 -8.097,-3.36 -4.36,2.239 -3.86,8.219 -3.86,8.219 -10.836,7.844 -7.347,9.336 1.868,8.84"
         style="fill:#4d494a;fill-opacity:1;fill-rule:nonzero;stroke:none"
         id="path14011" /><path
         d="m 359.559,241.922 c 0,0 7.972,0 16.441,-6.102 8.594,-6.101 -0.996,-8.218 -6.352,-7.597 -5.48,0.746 -3.613,-5.602 -8.097,-3.36 -4.36,2.239 -3.86,8.219 -3.86,8.219 -10.836,7.844 -7.347,9.336 1.868,8.84 z"
         style="fill:none;stroke:#231f20;stroke-opacity:1;stroke-width:0.9;stroke-linecap:butt;stroke-linejoin:miter;stroke-miterlimit:4;stroke-dasharray:none"
         id="path14013" /><path
         d="m 356.82,220.129 c 0,0 0.371,-9.961 -9.218,-20.547 -9.711,-10.461 12.332,-16.187 16.316,-10.957 4.109,5.23 42.719,8.219 42.719,8.219 0,0 3.488,7.097 -0.625,10.582 -6.473,-13.821 -54.422,-25.528 -49.192,12.703"
         style="fill:#863b22;fill-opacity:1;fill-rule:nonzero;stroke:none"
         id="path14015" /><path
         d="m 356.82,220.129 c 0,0 0.371,-9.961 -9.218,-20.547 -9.711,-10.461 12.332,-16.187 16.316,-10.957 4.109,5.23 42.719,8.219 42.719,8.219 0,0 3.488,7.097 -0.625,10.582 -6.473,-13.821 -54.422,-25.528 -49.192,12.703 z"
         style="fill:none;stroke:#231f20;stroke-opacity:1;stroke-width:5.1;stroke-linecap:butt;stroke-linejoin:miter;stroke-miterlimit:4;stroke-dasharray:none"
         id="path14017" /><path
         d="m 397.297,241.797 c 0,0 5.48,13.074 11.207,15.812 5.73,2.743 20.551,5.731 18.184,-10.582 -0.622,-4.234 -8.219,-7.597 -15.817,-6.476 -5.355,5.851 -12.328,5.851 -13.574,1.246"
         style="fill:#f0fafe;fill-opacity:1;fill-rule:nonzero;stroke:none"
         id="path14019" /><path
         d="m 397.297,241.797 c 0,0 5.48,13.074 11.207,15.812 5.73,2.743 20.551,5.731 18.184,-10.582 -0.622,-4.234 -8.219,-7.597 -15.817,-6.476 -5.355,5.851 -12.328,5.851 -13.574,1.246 z"
         style="fill:none;stroke:#231f20;stroke-opacity:1;stroke-width:6;stroke-linecap:butt;stroke-linejoin:miter;stroke-miterlimit:4;stroke-dasharray:none"
         id="path14021" /><path
         d="m 353.332,279.902 c 2.367,0.746 17.063,1.993 14.074,-15.316 -2.867,-17.184 -1.121,-16.313 -1.121,-16.313 0,0 -0.625,8.219 -7.722,8.715 -10.461,0 -11.333,20.797 -5.231,22.914"
         style="fill:#f0fafe;fill-opacity:1;fill-rule:nonzero;stroke:none"
         id="path14023" /><path
         d="m 353.332,279.902 c 2.367,0.746 17.063,1.993 14.074,-15.316 -2.867,-17.184 -1.121,-16.313 -1.121,-16.313 0,0 -0.625,8.219 -7.722,8.715 -10.461,0 -11.333,20.797 -5.231,22.914 z"
         style="fill:none;stroke:#231f20;stroke-opacity:1;stroke-width:6;stroke-linecap:butt;stroke-linejoin:miter;stroke-miterlimit:4;stroke-dasharray:none"
         id="path14025" /><path
         d="m 419.465,259.977 c 4.109,0 7.473,-4.11 7.473,-9.09 0,-4.981 -3.364,-9.09 -7.473,-9.09 -4.235,0 -7.598,4.109 -7.598,9.09 0,4.98 3.363,9.09 7.598,9.09"
         style="fill:#897b2b;fill-opacity:1;fill-rule:nonzero;stroke:none"
         id="path14027" /><path
         d="m 419.465,259.977 c 4.109,0 7.473,-4.11 7.473,-9.09 0,-4.981 -3.364,-9.09 -7.473,-9.09 -4.235,0 -7.598,4.109 -7.598,9.09 0,4.98 3.363,9.09 7.598,9.09 z"
         style="fill:none;stroke:#231f20;stroke-opacity:1;stroke-width:1.8;stroke-linecap:butt;stroke-linejoin:miter;stroke-miterlimit:4;stroke-dasharray:none"
         id="path14029" /><path
         d="m 363.172,276.289 c 3.984,-0.621 6.601,-4.98 5.976,-9.836 -0.746,-4.734 -4.609,-8.219 -8.593,-7.598 -3.985,0.625 -6.723,4.981 -5.977,9.84 0.746,4.731 4.61,8.219 8.594,7.594"
         style="fill:#897b2b;fill-opacity:1;fill-rule:nonzero;stroke:none"
         id="path14031" /><path
         d="m 363.172,276.289 c 3.984,-0.621 6.601,-4.98 5.976,-9.836 -0.746,-4.734 -4.609,-8.219 -8.593,-7.598 -3.985,0.625 -6.723,4.981 -5.977,9.84 0.746,4.731 4.61,8.219 8.594,7.594 z"
         style="fill:none;stroke:#231f20;stroke-opacity:1;stroke-width:1.8;stroke-linecap:butt;stroke-linejoin:miter;stroke-miterlimit:4;stroke-dasharray:none"
         id="path14033" /><path
         d="m 363.547,273.551 c 1.992,0 3.609,-1.742 3.609,-3.985 0,-2.117 -1.617,-3.859 -3.609,-3.859 -1.996,0 -3.488,1.742 -3.488,3.859 0,2.243 1.492,3.985 3.488,3.985"
         style="fill:#231f20;fill-opacity:1;fill-rule:nonzero;stroke:none"
         id="path14035" /><path
         d="m 363.547,273.551 c 1.992,0 3.609,-1.742 3.609,-3.985 0,-2.117 -1.617,-3.859 -3.609,-3.859 -1.996,0 -3.488,1.742 -3.488,3.859 0,2.243 1.492,3.985 3.488,3.985 z"
         style="fill:none;stroke:#231f20;stroke-opacity:1;stroke-width:0.9;stroke-linecap:butt;stroke-linejoin:miter;stroke-miterlimit:4;stroke-dasharray:none"
         id="path14037" /><path
         d="m 421.082,256.988 c 1.992,0 3.738,-1.867 3.738,-4.109 0,-2.367 -1.746,-4.234 -3.738,-4.234 -2.117,0 -3.734,1.867 -3.734,4.234 0,2.242 1.617,4.109 3.734,4.109"
         style="fill:#231f20;fill-opacity:1;fill-rule:nonzero;stroke:none"
         id="path14039" /><path
         d="m 421.082,256.988 c 1.992,0 3.738,-1.867 3.738,-4.109 0,-2.367 -1.746,-4.234 -3.738,-4.234 -2.117,0 -3.734,1.867 -3.734,4.234 0,2.242 1.617,4.109 3.734,4.109 z"
         style="fill:none;stroke:#231f20;stroke-opacity:1;stroke-width:0.9;stroke-linecap:butt;stroke-linejoin:miter;stroke-miterlimit:4;stroke-dasharray:none"
         id="path14041" /><path
         d="m 360.43,277.285 c 0.875,0 1.621,-1.742 1.621,-3.859 0,-2.242 -0.746,-3.985 -1.621,-3.985 -0.996,0 -1.742,1.743 -1.742,3.985 0,2.117 0.746,3.859 1.742,3.859"
         style="fill:#ffffff;fill-opacity:1;fill-rule:nonzero;stroke:none"
         id="path14043" /><path
         d="m 417.844,262.094 c 0.996,0 1.746,-2.117 1.746,-4.731 0,-2.617 -0.75,-4.734 -1.746,-4.734 -0.871,0 -1.742,2.117 -1.742,4.734 0,2.614 0.871,4.731 1.742,4.731"
         style="fill:#ffffff;fill-opacity:1;fill-rule:nonzero;stroke:none"
         id="path14045" /><path
         d="m 366.285,236.816 c 3.113,-0.75 5.356,-1.992 5.231,-2.617 -0.125,-0.621 -2.739,-0.496 -5.731,0.25 -3.113,0.746 -5.355,1.867 -5.23,2.492 0.125,0.747 2.742,0.622 5.73,-0.125"
         style="fill:#ffffff;fill-opacity:1;fill-rule:nonzero;stroke:none"
         id="path14047" /><path
         d="m 413.363,212.535 c 0,0 13.821,-8.594 9.961,-15.195 -3.734,-6.598 4.36,-0.496 4.36,3.859 0,4.235 -14.321,11.336 -14.321,11.336"
         style="fill:#fab63d;fill-opacity:1;fill-rule:nonzero;stroke:none"
         id="path14049" /><path
         d="m 413.363,212.535 c 0,0 13.821,-8.594 9.961,-15.195 -3.734,-6.598 4.36,-0.496 4.36,3.859 0,4.235 -14.321,11.336 -14.321,11.336 z"
         style="fill:none;stroke:#231f20;stroke-opacity:1;stroke-width:0.9;stroke-linecap:butt;stroke-linejoin:miter;stroke-miterlimit:4;stroke-dasharray:none"
         id="path14051" /><path
         d="m 359.313,288.492 c 0,0 20.796,9.965 24.16,4.235 3.363,-5.602 6.226,-11.829 0.496,-12.329 -5.727,-0.496 -9.465,6.227 -13.324,4.735 -3.739,-1.371 -11.332,3.359 -11.332,3.359"
         style="fill:#feeb8e;fill-opacity:1;fill-rule:nonzero;stroke:none"
         id="path14053" /><path
         d="m 359.313,288.492 c 0,0 20.796,9.965 24.16,4.235 3.363,-5.602 6.226,-11.829 0.496,-12.329 -5.727,-0.496 -9.465,6.227 -13.324,4.735 -3.739,-1.371 -11.332,3.359 -11.332,3.359 z"
         style="fill:none;stroke:#231f20;stroke-opacity:1;stroke-width:0.9;stroke-linecap:butt;stroke-linejoin:miter;stroke-miterlimit:4;stroke-dasharray:none"
         id="path14055" /><path
         d="m 404.895,285.133 c 0,0 16.062,4.355 18.429,-6.102 2.367,-10.461 9.094,-11.832 6.227,-14.32 -2.863,-2.367 -14.696,5.727 -17.063,10.957 -7.472,2.117 -12.703,6.352 -7.593,9.465"
         style="fill:#feeb8e;fill-opacity:1;fill-rule:nonzero;stroke:none"
         id="path14057" /><path
         d="m 404.895,285.133 c 0,0 16.062,4.355 18.429,-6.102 2.367,-10.461 9.094,-11.832 6.227,-14.32 -2.863,-2.367 -14.696,5.727 -17.063,10.957 -7.472,2.117 -12.703,6.352 -7.593,9.465 z"
         style="fill:none;stroke:#231f20;stroke-opacity:1;stroke-width:0.9;stroke-linecap:butt;stroke-linejoin:miter;stroke-miterlimit:4;stroke-dasharray:none"
         id="path14059" /><path
         d="m 472.145,172.313 c 0,0 -45.707,-69.364 -58.286,-72.5982 -12.703,-3.1171 -64.761,-36.2382 -86.804,-33.125 -22.168,3.1133 -30.016,-6.3515 -31.633,-14.1953 -0.375,-1.9922 -0.375,-17.0625 5.23,-15.3203 18.805,5.4805 18.309,1.9961 17.684,-13.0742 -0.496,-9.7109 14.695,-18.55469 20.801,-9.3398 9.836,14.9453 14.57,0.875 17.808,2.9882 17.434,11.086 23.785,34.7461 23.785,34.7461 0,0 42.594,30.0078 58.411,34.7422 15.566,4.7305 72.484,33.1213 86.679,48.9373 14.2,15.692 3.118,36.239 4.735,50.434 3.613,35.238 -56.293,6.847 -58.41,-14.195"
         style="fill:#f68712;fill-opacity:1;fill-rule:nonzero;stroke:none"
         id="path14061" /><path
         d="m 666.305,333.324 c 0,0 33.129,-78.949 22.043,-104.23 -11.082,-25.153 31.632,-9.461 31.632,-9.461 0,0 3.118,-97.754 -3.238,-115.188 -6.226,-17.3083 -78.832,-17.3083 -72.605,-1.496 6.351,15.692 6.351,28.391 20.551,34.621 14.195,6.348 28.394,6.348 30.011,34.743 1.496,28.39 -15.816,6.347 -39.48,9.464 -23.66,3.235 -39.477,61.637 -31.633,86.793 -19.426,44.207 16.937,83.68 42.719,64.754"
         style="fill:#f68712;fill-opacity:1;fill-rule:nonzero;stroke:none"
         id="path14063" /><path
         d="m 434.285,107.684 c 0,0 -78.836,-42.7152 -86.805,-44.2074 -7.847,-1.6211 -29.89,6.2265 -26.777,-4.7344 3.113,-11.082 22.043,-31.6289 37.86,-22.1641 15.816,9.4649 23.664,23.6602 36.367,33.125 12.578,9.461 40.972,15.8125 56.789,23.6602 15.695,7.9687 -17.434,14.3207 -17.434,14.3207"
         style="fill:#3d3a3b;fill-opacity:1;fill-rule:nonzero;stroke:none"
         id="path14065" /><path
         d="m 434.285,107.684 c 0,0 -78.836,-42.7152 -86.805,-44.2074 -7.847,-1.6211 -29.89,6.2265 -26.777,-4.7344 3.113,-11.082 22.043,-31.6289 37.86,-22.1641 15.816,9.4649 23.664,23.6602 36.367,33.125 12.578,9.461 40.972,15.8125 56.789,23.6602 15.695,7.9687 -17.434,14.3207 -17.434,14.3207 z"
         style="fill:none;stroke:#231f20;stroke-opacity:1;stroke-width:0.9;stroke-linecap:butt;stroke-linejoin:miter;stroke-miterlimit:4;stroke-dasharray:none"
         id="path14067" /><path
         d="m 688.348,185.012 c 0,0 20.55,7.847 22.168,22.043 1.496,14.195 12.582,-64.754 3.113,-82.063 -9.465,-17.308 -31.633,-13.699 -25.281,-6.351 6.351,7.347 -30.012,-9.961 -18.93,3.238 11.086,13.074 -17.313,1.492 -6.352,9.461 11.086,7.848 30.016,6.23 33.129,23.664 3.239,17.309 -7.847,30.008 -7.847,30.008"
         style="fill:#3d3a3b;fill-opacity:1;fill-rule:nonzero;stroke:none"
         id="path14069" /><path
         d="m 688.348,185.012 c 0,0 20.55,7.847 22.168,22.043 1.496,14.195 12.582,-64.754 3.113,-82.063 -9.465,-17.308 -31.633,-13.699 -25.281,-6.351 6.351,7.347 -30.012,-9.961 -18.93,3.238 11.086,13.074 -17.313,1.492 -6.352,9.461 11.086,7.848 30.016,6.23 33.129,23.664 3.239,17.309 -7.847,30.008 -7.847,30.008 z"
         style="fill:none;stroke:#231f20;stroke-opacity:1;stroke-width:0.9;stroke-linecap:butt;stroke-linejoin:miter;stroke-miterlimit:4;stroke-dasharray:none"
         id="path14071" /><path
         d="m 680.504,109.176 c 0,0 -14.199,-7.844 -3.238,-17.3088 11.082,-9.4649 3.238,17.3088 3.238,17.3088"
         style="fill:#231f20;fill-opacity:1;fill-rule:nonzero;stroke:none"
         id="path14073" /><path
         d="m 680.504,109.176 c 0,0 -14.199,-7.844 -3.238,-17.3088 11.082,-9.4649 3.238,17.3088 3.238,17.3088 z"
         style="fill:none;stroke:#231f20;stroke-opacity:1;stroke-width:0.9;stroke-linecap:butt;stroke-linejoin:miter;stroke-miterlimit:4;stroke-dasharray:none"
         id="path14075" /><path
         d="m 658.336,120.258 c 0,0 -10.961,-9.461 -9.465,-20.5432 1.617,-11.0859 9.465,20.5432 9.465,20.5432"
         style="fill:#231f20;fill-opacity:1;fill-rule:nonzero;stroke:none"
         id="path14077" /><path
         d="m 658.336,120.258 c 0,0 -10.961,-9.461 -9.465,-20.5432 1.617,-11.0859 9.465,20.5432 9.465,20.5432 z"
         style="fill:none;stroke:#231f20;stroke-opacity:1;stroke-width:0.9;stroke-linecap:butt;stroke-linejoin:miter;stroke-miterlimit:4;stroke-dasharray:none"
         id="path14079" /><path
         d="m 604.656,371.18 c 0,0 75.848,132.496 105.86,143.578 29.89,10.957 91.539,42.586 127.781,45.699 36.367,3.113 4.73,-72.598 -26.777,-96.133 -31.633,-23.66 -88.422,-37.855 -108.973,-53.672 -20.551,-15.812 -47.328,-18.925 -58.41,-44.207 -11.086,-25.277 -42.594,6.352 -39.481,4.735"
         style="fill:#fffef0;fill-opacity:1;fill-rule:nonzero;stroke:none"
         id="path14081" /><path
         d="m 604.656,371.18 c 0,0 75.848,132.496 105.86,143.578 29.89,10.957 91.539,42.586 127.781,45.699 36.367,3.113 4.73,-72.598 -26.777,-96.133 -31.633,-23.66 -88.422,-37.855 -108.973,-53.672 -20.551,-15.812 -47.328,-18.925 -58.41,-44.207 -11.086,-25.277 -42.594,6.352 -39.481,4.735 z"
         style="fill:none;stroke:#231f20;stroke-opacity:1;stroke-width:8.1;stroke-linecap:butt;stroke-linejoin:miter;stroke-miterlimit:4;stroke-dasharray:none"
         id="path14083" /><path
         d="m 605.902,371.18 c 0,0 73.731,129.383 103.121,140.215 29.516,10.832 82.321,38.355 117.942,41.468 35.617,3.114 5.476,-67.496 -25.531,-90.656 -31.012,-23.16 -82.325,-35.613 -102.375,-51.055 -20.176,-15.441 -46.829,-21.543 -57.661,-46.324 -10.835,-24.781 -38.609,7.844 -35.496,6.352"
         style="fill:#fde8c0;fill-opacity:1;fill-rule:nonzero;stroke:none"
         id="path14085" /><path
         d="m 607.023,371.18 c 0,0 71.735,126.269 100.629,136.976 28.895,10.586 72.981,34.121 107.977,37.235 34.996,2.988 6.105,-62.637 -24.285,-85.301 -30.387,-22.789 -76.094,-33.25 -95.895,-48.442 -19.804,-15.191 -46.082,-24.031 -56.793,-48.316 -10.586,-24.406 -34.621,9.34 -31.633,7.848"
         style="fill:#fcd497;fill-opacity:1;fill-rule:nonzero;stroke:none"
         id="path14087" /><path
         d="m 608.27,371.055 c 0,0 69.742,123.281 98.011,133.742 28.274,10.457 63.766,30.008 98.016,32.996 34.25,2.988 6.851,-57.531 -22.914,-79.695 -29.891,-22.414 -70.117,-31.133 -89.422,-45.95 -19.43,-14.945 -45.582,-26.648 -56.043,-50.433 -10.34,-23.91 -30.637,10.832 -27.648,9.34"
         style="fill:#fabe6f;fill-opacity:1;fill-rule:nonzero;stroke:none"
         id="path14089" /><path
         d="m 609.516,371.055 c 0,0 67.625,120.293 95.398,130.504 27.774,10.211 54.422,25.773 88.051,28.64 33.625,2.864 7.473,-52.426 -21.672,-74.219 -29.266,-21.917 -63.891,-28.765 -82.945,-43.335 -18.93,-14.692 -44.832,-29.137 -55.047,-52.547 -10.336,-23.414 -26.778,12.449 -23.785,10.957"
         style="fill:#f9ab4c;fill-opacity:1;fill-rule:nonzero;stroke:none"
         id="path14091" /><path
         d="m 610.637,371.055 c 0,0 65.633,117.179 92.906,127.14 27.148,10.086 45.082,21.543 78.086,24.407 32.879,2.863 8.223,-47.446 -20.426,-68.739 -28.644,-21.543 -57.785,-26.523 -76.34,-40.843 -18.683,-14.196 -44.34,-31.629 -54.3,-54.543 -10.09,-22.789 -22.793,13.949 -19.926,12.578"
         style="fill:#f7972e;fill-opacity:1;fill-rule:nonzero;stroke:none"
         id="path14093" /><path
         d="m 611.879,370.93 c 0,0 63.641,114.191 90.293,124.027 26.527,9.84 35.867,17.309 68.125,20.047 32.258,2.867 8.969,-42.336 -19.18,-63.258 -28.019,-21.043 -51.683,-24.156 -69.867,-38.226 -18.184,-13.95 -43.59,-34.122 -53.43,-56.536 -9.836,-22.418 -18.804,15.442 -15.941,13.946"
         style="fill:#f68712;fill-opacity:1;fill-rule:nonzero;stroke:none"
         id="path14095" /><path
         d="m 497.301,235.445 c -7.844,1.621 -8.469,-54.168 -6.227,-67.867 2.117,-13.695 -25.281,-25.277 -15.816,-33.121 17.312,-14.445 58.41,39.102 58.41,56.781 0,12.703 -18.93,17.434 15.816,36.364 34.75,18.925 52.059,85.175 83.567,31.503 31.637,-53.671 37.363,-1.246 23.789,50.559 -11.207,42.336 -58.41,61.016 -83.692,26.774 -9.964,-7.973 -2.988,-44.708 -34.5,-56.411 -32.003,-11.832 -20.921,-48.566 -41.347,-44.582"
         style="fill:#e16814;fill-opacity:1;fill-rule:nonzero;stroke:none"
         id="path14097" /><path
         d="m 759.336,527.332 c 0,0 63.144,28.395 69.496,20.547 20.051,-25.027 -2.492,-66.746 -26.777,-78.949 -12.703,-6.227 15.691,28.394 6.226,20.547 -9.465,-7.969 4.735,14.199 -6.226,12.578 -11.086,-1.492 18.929,26.898 -4.731,22.164 -23.664,-4.731 -37.988,6.23 -37.988,3.113"
         style="fill:#fffef0;fill-opacity:1;fill-rule:nonzero;stroke:none"
         id="path14099" /><path
         d="m 615.617,239.059 c 0,0 11.832,-50.809 25.406,-54.668 13.7,-3.985 -25.406,54.668 -25.406,54.668"
         style="fill:#302d2e;fill-opacity:1;fill-rule:nonzero;stroke:none"
         id="path14101" /><path
         d="m 615.617,239.059 c 0,0 11.832,-50.809 25.406,-54.668 13.7,-3.985 -25.406,54.668 -25.406,54.668 z"
         style="fill:none;stroke:#231f20;stroke-opacity:1;stroke-width:0.9;stroke-linecap:butt;stroke-linejoin:miter;stroke-miterlimit:4;stroke-dasharray:none"
         id="path14103" /><path
         d="m 463.301,164.84 -22.293,-27.395 c 1,-2.863 25.906,12.7 22.293,27.395"
         style="fill:#231f20;fill-opacity:1;fill-rule:nonzero;stroke:none"
         id="path14105" /><path
         d="m 463.301,164.84 -22.293,-27.395 c 1,-2.863 25.906,12.7 22.293,27.395 z"
         style="fill:none;stroke:#231f20;stroke-opacity:1;stroke-width:0.9;stroke-linecap:butt;stroke-linejoin:miter;stroke-miterlimit:4;stroke-dasharray:none"
         id="path14107" /><path
         d="m 405.266,641.273 c 0,0 34.746,-67.242 36.863,-80.316 2.242,-12.953 47.699,-24.906 47.699,-24.906 -29.14,9.961 -58.285,46.074 -84.562,105.222"
         style="fill:#231f20;fill-opacity:1;fill-rule:nonzero;stroke:none"
         id="path14109" /><path
         d="m 405.266,641.273 c 0,0 34.746,-67.242 36.863,-80.316 2.242,-12.953 47.699,-24.906 47.699,-24.906 -29.14,9.961 -58.285,46.074 -84.562,105.222 z"
         style="fill:none;stroke:#231f20;stroke-opacity:1;stroke-width:0.9;stroke-linecap:butt;stroke-linejoin:miter;stroke-miterlimit:4;stroke-dasharray:none"
         id="path14111" /><path
         d="m 276.117,623.965 c 0,0 4.36,-31.504 1.121,-39.102 -3.238,-7.593 5.481,2.117 5.481,2.117 l -6.602,36.985"
         style="fill:#231f20;fill-opacity:1;fill-rule:nonzero;stroke:none"
         id="path14113" /><path
         d="m 276.117,623.965 c 0,0 4.36,-31.504 1.121,-39.102 -3.238,-7.593 5.481,2.117 5.481,2.117 l -6.602,36.985 z"
         style="fill:none;stroke:#231f20;stroke-opacity:1;stroke-width:0.9;stroke-linecap:butt;stroke-linejoin:miter;stroke-miterlimit:4;stroke-dasharray:none"
         id="path14115" /><path
         d="m 529.684,178.539 c 0,0 2.988,-22.539 3.984,-30.262 0.996,-7.843 6.852,0.871 6.852,0.871 l -10.836,29.391"
         style="fill:#231f20;fill-opacity:1;fill-rule:nonzero;stroke:none"
         id="path14117" /><path
         d="m 529.684,178.539 c 0,0 2.988,-22.539 3.984,-30.262 0.996,-7.843 6.852,0.871 6.852,0.871 l -10.836,29.391 z"
         style="fill:none;stroke:#231f20;stroke-opacity:1;stroke-width:0.9;stroke-linecap:butt;stroke-linejoin:miter;stroke-miterlimit:4;stroke-dasharray:none"
         id="path14119" /></g></g></svg>